<svg width="32" height="32" viewBox="0 0 32 32" fill="none" xmlns="http://www.w3.org/2000/svg">
<path d="M26.7076 12.7075L16.7076 22.7075C16.6147 22.8005 16.5044 22.8742 16.383 22.9246C16.2616 22.9749 16.1315 23.0008 16.0001 23.0008C15.8687 23.0008 15.7385 22.9749 15.6171 22.9246C15.4957 22.8742 15.3854 22.8005 15.2926 22.7075L5.29257 12.7075C5.10493 12.5199 4.99951 12.2654 4.99951 12C4.99951 11.7346 5.10493 11.4801 5.29257 11.2925C5.48021 11.1049 5.7347 10.9995 6.00007 10.9995C6.26543 10.9995 6.51993 11.1049 6.70757 11.2925L16.0001 20.5863L25.2926 11.2925C25.3855 11.1996 25.4958 11.1259 25.6172 11.0756C25.7386 11.0253 25.8687 10.9995 26.0001 10.9995C26.1315 10.9995 26.2616 11.0253 26.383 11.0756C26.5044 11.1259 26.6147 11.1996 26.7076 11.2925C26.8005 11.3854 26.8742 11.4957 26.9245 11.6171C26.9747 11.7385 27.0006 11.8686 27.0006 12C27.0006 12.1314 26.9747 12.2615 26.9245 12.3829C26.8742 12.5043 26.8005 12.6146 26.7076 12.7075Z" fill="black"/>
</svg>
