<svg width="39" height="39" viewBox="0 0 39 39" fill="none" xmlns="http://www.w3.org/2000/svg">
<rect width="39" height="39" fill="#576CA8"/>
<path d="M19.6563 3C16.362 3 13.1416 3.97687 10.4025 5.80708C7.66343 7.6373 5.52856 10.2386 4.26789 13.2822C3.00722 16.3257 2.67737 19.6747 3.32005 22.9057C3.96274 26.1367 5.54909 29.1046 7.87851 31.434C10.2079 33.7634 13.1758 35.3498 16.4068 35.9925C19.6378 36.6351 22.9868 36.3053 26.0303 35.0446C29.0739 33.7839 31.6752 31.6491 33.5054 28.91C35.3356 26.1709 36.3125 22.9505 36.3125 19.6562C36.3078 15.2402 34.5515 11.0063 31.4289 7.88365C28.3062 4.76101 24.0723 3.00466 19.6563 3ZM19.6563 33.75C16.8688 33.75 14.1439 32.9234 11.8262 31.3748C9.50848 29.8261 7.70205 27.625 6.63533 25.0497C5.56861 22.4744 5.2895 19.6406 5.83331 16.9067C6.37713 14.1728 7.71943 11.6615 9.69047 9.69046C11.6615 7.71942 14.1728 6.37712 16.9067 5.83331C19.6406 5.2895 22.4744 5.5686 25.0497 6.63532C27.625 7.70205 29.8261 9.50848 31.3748 11.8262C32.9234 14.1439 33.75 16.8688 33.75 19.6562C33.7458 23.3928 32.2595 26.9752 29.6174 29.6174C26.9752 32.2595 23.3929 33.7458 19.6563 33.75ZM25.6877 20.031C25.8069 20.15 25.9014 20.2913 25.9659 20.4469C26.0303 20.6024 26.0635 20.7691 26.0635 20.9375C26.0635 21.1059 26.0303 21.2726 25.9659 21.4281C25.9014 21.5837 25.8069 21.725 25.6877 21.844L20.5627 26.969C20.4437 27.0881 20.3024 27.1826 20.1469 27.2471C19.9914 27.3116 19.8246 27.3448 19.6563 27.3448C19.4879 27.3448 19.3212 27.3116 19.1656 27.2471C19.0101 27.1826 18.8688 27.0881 18.7498 26.969L13.6248 21.844C13.3844 21.6036 13.2493 21.2775 13.2493 20.9375C13.2493 20.5975 13.3844 20.2714 13.6248 20.031C13.8652 19.7906 14.1913 19.6555 14.5313 19.6555C14.8713 19.6555 15.1973 19.7906 15.4377 20.031L18.375 22.9699V13.25C18.375 12.9102 18.51 12.5843 18.7503 12.344C18.9906 12.1037 19.3164 11.9688 19.6563 11.9688C19.9961 11.9688 20.322 12.1037 20.5622 12.344C20.8025 12.5843 20.9375 12.9102 20.9375 13.25V22.9699L23.8748 20.031C23.9938 19.9119 24.1351 19.8174 24.2906 19.7529C24.4462 19.6884 24.6129 19.6552 24.7813 19.6552C24.9496 19.6552 25.1164 19.6884 25.2719 19.7529C25.4274 19.8174 25.5687 19.9119 25.6877 20.031Z" fill="#302B27"/>
</svg>
