<svg width="39" height="39" viewBox="0 0 39 39" fill="none" xmlns="http://www.w3.org/2000/svg">
<rect width="39" height="39" fill="#55DD73"/>
<path d="M32.4138 12.1713L26.8288 6.585C26.643 6.39924 26.4225 6.25188 26.1799 6.15134C25.9372 6.0508 25.6771 5.99905 25.4144 5.99905C25.1517 5.99905 24.8916 6.0508 24.6489 6.15134C24.4062 6.25188 24.1857 6.39924 24 6.585L8.58626 22C8.39973 22.185 8.25185 22.4053 8.15121 22.648C8.05057 22.8907 7.99917 23.151 8.00001 23.4138V29C8.00001 29.5304 8.21072 30.0391 8.5858 30.4142C8.96087 30.7893 9.46958 31 10 31H15.5863C15.849 31.0008 16.1093 30.9494 16.352 30.8488C16.5947 30.7482 16.815 30.6003 17 30.4138L32.4138 15C32.5995 14.8143 32.7469 14.5938 32.8474 14.3511C32.948 14.1084 32.9997 13.8483 32.9997 13.5856C32.9997 13.3229 32.948 13.0628 32.8474 12.8202C32.7469 12.5775 32.5995 12.357 32.4138 12.1713ZM10.4138 23L21 12.4138L23.0863 14.5L12.5 25.085L10.4138 23ZM10 25.4138L13.5863 29H10V25.4138ZM16 28.5863L13.9138 26.5L24.5 15.9138L26.5863 18L16 28.5863ZM28 16.5863L22.4138 11L25.4138 8L31 13.585L28 16.5863Z" fill="#302B27"/>
</svg>
