<svg width="39" height="39" viewBox="0 0 39 39" fill="none" xmlns="http://www.w3.org/2000/svg">
<rect width="39" height="39" fill="#DF3838"/>
<path d="M31 9H26V8C26 7.20435 25.6839 6.44129 25.1213 5.87868C24.5587 5.31607 23.7956 5 23 5H17C16.2044 5 15.4413 5.31607 14.8787 5.87868C14.3161 6.44129 14 7.20435 14 8V9H9C8.73478 9 8.48043 9.10536 8.29289 9.29289C8.10536 9.48043 8 9.73478 8 10C8 10.2652 8.10536 10.5196 8.29289 10.7071C8.48043 10.8946 8.73478 11 9 11H10V29C10 29.5304 10.2107 30.0391 10.5858 30.4142C10.9609 30.7893 11.4696 31 12 31H28C28.5304 31 29.0391 30.7893 29.4142 30.4142C29.7893 30.0391 30 29.5304 30 29V11H31C31.2652 11 31.5196 10.8946 31.7071 10.7071C31.8946 10.5196 32 10.2652 32 10C32 9.73478 31.8946 9.48043 31.7071 9.29289C31.5196 9.10536 31.2652 9 31 9ZM16 8C16 7.73478 16.1054 7.48043 16.2929 7.29289C16.4804 7.10536 16.7348 7 17 7H23C23.2652 7 23.5196 7.10536 23.7071 7.29289C23.8946 7.48043 24 7.73478 24 8V9H16V8ZM28 29H12V11H28V29ZM18 16V24C18 24.2652 17.8946 24.5196 17.7071 24.7071C17.5196 24.8946 17.2652 25 17 25C16.7348 25 16.4804 24.8946 16.2929 24.7071C16.1054 24.5196 16 24.2652 16 24V16C16 15.7348 16.1054 15.4804 16.2929 15.2929C16.4804 15.1054 16.7348 15 17 15C17.2652 15 17.5196 15.1054 17.7071 15.2929C17.8946 15.4804 18 15.7348 18 16ZM24 16V24C24 24.2652 23.8946 24.5196 23.7071 24.7071C23.5196 24.8946 23.2652 25 23 25C22.7348 25 22.4804 24.8946 22.2929 24.7071C22.1054 24.5196 22 24.2652 22 24V16C22 15.7348 22.1054 15.4804 22.2929 15.2929C22.4804 15.1054 22.7348 15 23 15C23.2652 15 23.5196 15.1054 23.7071 15.2929C23.8946 15.4804 24 15.7348 24 16Z" fill="#302B27"/>
</svg>
