<svg width="35" height="26" viewBox="0 0 35 26" fill="none" xmlns="http://www.w3.org/2000/svg">
<path d="M35 12.8125C35.0073 15.5874 34.106 18.2887 32.4335 20.5044C32.3413 20.6268 32.226 20.7299 32.094 20.8078C31.962 20.8857 31.8159 20.9369 31.6641 20.9584C31.5123 20.9799 31.3578 20.9713 31.2093 20.9331C31.0608 20.895 30.9213 20.828 30.7988 20.736C30.6762 20.644 30.573 20.5288 30.495 20.3969C30.417 20.2651 30.3658 20.1192 30.3443 19.9676C30.3227 19.816 30.3313 19.6616 30.3695 19.5133C30.4077 19.365 30.4748 19.2256 30.5669 19.1032C31.9359 17.2917 32.6735 15.0822 32.6668 12.8125C32.6668 10.0312 31.5606 7.36376 29.5916 5.39707C27.6226 3.43038 24.952 2.3255 22.1674 2.3255C19.3828 2.3255 16.7123 3.43038 14.7433 5.39707C12.7743 7.36376 11.6681 10.0312 11.6681 12.8125C11.6681 13.1215 11.5452 13.4179 11.3264 13.6364C11.1076 13.8549 10.8109 13.9777 10.5015 13.9777C10.1921 13.9777 9.89536 13.8549 9.67658 13.6364C9.4578 13.4179 9.33489 13.1215 9.33489 12.8125C9.33432 11.6366 9.49576 10.4662 9.81466 9.33431C9.65571 9.31683 9.4953 9.31683 9.33489 9.31683C7.47849 9.31683 5.69813 10.0534 4.38546 11.3645C3.07278 12.6757 2.33533 14.4539 2.33533 16.3082C2.33533 18.1624 3.07278 19.9406 4.38546 21.2518C5.69813 22.5629 7.47849 23.2995 9.33489 23.2995H12.8347C13.1441 23.2995 13.4408 23.4222 13.6596 23.6408C13.8784 23.8593 14.0013 24.1557 14.0013 24.4647C14.0013 24.7737 13.8784 25.0701 13.6596 25.2886C13.4408 25.5072 13.1441 25.6299 12.8347 25.6299H9.33489C8.0519 25.6302 6.78262 25.3663 5.60633 24.8546C4.43004 24.3429 3.37202 23.5945 2.49832 22.6561C1.62463 21.7176 0.954049 20.6093 0.528449 19.4004C0.10285 18.1915 -0.0686209 16.9079 0.0247458 15.6298C0.118112 14.3517 0.474311 13.1066 1.0711 11.9721C1.66788 10.8377 2.49243 9.83841 3.49325 9.03658C4.49407 8.23475 5.64966 7.64765 6.88785 7.31194C8.12604 6.97623 9.42024 6.89912 10.6896 7.08543C11.9822 4.50324 14.1097 2.43252 16.7275 1.20869C19.3453 -0.0151489 22.3001 -0.320425 25.1133 0.342307C27.9264 1.00504 30.4332 2.59696 32.2276 4.86022C34.022 7.12348 34.9988 9.92553 35 12.8125ZM21.8262 11.9881C21.7179 11.8798 21.5892 11.7938 21.4476 11.7352C21.3059 11.6765 21.1541 11.6464 21.0008 11.6464C20.8475 11.6464 20.6957 11.6765 20.5541 11.7352C20.4125 11.7938 20.2838 11.8798 20.1755 11.9881L15.5091 16.649C15.4007 16.7572 15.3147 16.8858 15.2561 17.0272C15.1974 17.1687 15.1672 17.3203 15.1672 17.4734C15.1672 17.6265 15.1974 17.7781 15.2561 17.9195C15.3147 18.061 15.4007 18.1895 15.5091 18.2978C15.728 18.5164 16.0249 18.6392 16.3345 18.6392C16.4877 18.6392 16.6395 18.6091 16.7811 18.5505C16.9228 18.4919 17.0514 18.406 17.1598 18.2978L19.8342 15.625V24.4647C19.8342 24.7737 19.9571 25.0701 20.1759 25.2886C20.3947 25.5072 20.6914 25.6299 21.0008 25.6299C21.3102 25.6299 21.607 25.5072 21.8257 25.2886C22.0445 25.0701 22.1674 24.7737 22.1674 24.4647V15.625L24.8418 18.2978C24.9502 18.406 25.0789 18.4919 25.2205 18.5505C25.3621 18.6091 25.5139 18.6392 25.6672 18.6392C25.8205 18.6392 25.9723 18.6091 26.1139 18.5505C26.2555 18.4919 26.3842 18.406 26.4926 18.2978C26.601 18.1895 26.6869 18.061 26.7456 17.9195C26.8043 17.7781 26.8345 17.6265 26.8345 17.4734C26.8345 17.3203 26.8043 17.1687 26.7456 17.0272C26.6869 16.8858 26.601 16.7572 26.4926 16.649L21.8262 11.9881Z" fill="#302B27"/>
</svg>
