<svg width="321" height="76" viewBox="0 0 321 76" fill="none" xmlns="http://www.w3.org/2000/svg">
<g clip-path="url(#clip0_2_430)">
<g filter="url(#filter0_d_2_430)">
<path d="M35.0846 52.6884V60.093H10.5222V52.6884H35.0846ZM13.6282 14.0199V60.093H4.12018V14.0199H13.6282ZM31.8836 32.7846V39.9993H10.5222V32.7846H31.8836ZM35.0529 14.0199V21.4561H10.5222V14.0199H35.0529ZM64.6544 48.0368C64.6544 47.214 64.5275 46.4757 64.2744 45.8218C64.0419 45.1467 63.5982 44.5349 62.9432 43.9864C62.2882 43.4168 61.3689 42.8578 60.1858 42.3093C59.0026 41.7608 57.4707 41.1912 55.5903 40.6006C53.4985 39.9255 51.5124 39.166 49.6319 38.3222C47.7726 37.4784 46.1245 36.4974 44.6877 35.3794C43.2721 34.2402 42.1522 32.9217 41.3283 31.4239C40.5253 29.9261 40.1239 28.1857 40.1239 26.2027C40.1239 24.2829 40.5465 22.5425 41.3916 20.9815C42.2368 19.3993 43.42 18.0492 44.9413 16.9311C46.4625 15.7919 48.2585 14.9165 50.3292 14.3047C52.4209 13.6929 54.7134 13.387 57.2066 13.387C60.6083 13.387 63.5769 13.9988 66.1125 15.2223C68.648 16.4459 70.613 18.123 72.0073 20.2537C73.4229 22.3844 74.131 24.8209 74.131 27.5634H64.6863C64.6863 26.2132 64.4013 25.0319 63.8307 24.0192C63.2813 22.9856 62.4363 22.1734 61.2951 21.5827C60.1751 20.992 58.7596 20.6967 57.0482 20.6967C55.4001 20.6967 54.0267 20.9498 52.928 21.4561C51.8293 21.9413 51.0053 22.6058 50.4559 23.4497C49.9066 24.2724 49.6319 25.2006 49.6319 26.2343C49.6319 27.0149 49.8221 27.7216 50.2024 28.3544C50.6039 28.9873 51.1955 29.578 51.9772 30.1265C52.759 30.675 53.7203 31.1918 54.8613 31.677C56.0023 32.1622 57.3228 32.6369 58.823 33.101C61.3376 33.8604 63.5451 34.7148 65.4469 35.6642C67.3699 36.6134 68.9755 37.6788 70.2642 38.8602C71.5529 40.0415 72.5254 41.3811 73.1804 42.8788C73.8353 44.3767 74.1628 46.0749 74.1628 47.9735C74.1628 49.9776 73.7716 51.7707 72.9898 53.3529C72.2079 54.9351 71.0779 56.2747 69.5986 57.3717C68.1199 58.4686 66.3556 59.3018 64.3057 59.8715C62.2563 60.4412 59.9639 60.7258 57.4285 60.7258C55.1465 60.7258 52.8963 60.4306 50.6778 59.8397C48.4592 59.2282 46.4414 58.3104 44.6243 57.0869C42.8284 55.8633 41.3916 54.3022 40.314 52.4036C39.2364 50.505 38.6977 48.2583 38.6977 45.6635H48.2374C48.2374 47.098 48.4592 48.311 48.903 49.3026C49.3466 50.294 49.9699 51.0957 50.7729 51.7075C51.5969 52.3192 52.5688 52.7623 53.6886 53.0365C54.8296 53.3108 56.0763 53.4479 57.4285 53.4479C59.0764 53.4479 60.4289 53.2158 61.4851 52.7517C62.5626 52.2876 63.355 51.6442 63.8625 50.8214C64.3906 49.9987 64.6544 49.0705 64.6544 48.0368ZM101.26 14.0199V60.093H91.7842V14.0199H101.26ZM115.459 14.0199V21.4561H77.8071V14.0199H115.459ZM225.055 53.258L237.542 63.1307L231.552 68.3205L219.255 58.4475L225.055 53.258ZM237.859 35.9806V38.164C237.859 41.6659 237.384 44.8091 236.433 47.5938C235.503 50.3784 234.161 52.7517 232.408 54.7136C230.654 56.6544 228.583 58.1417 226.196 59.1751C223.808 60.2091 221.157 60.7258 218.241 60.7258C215.346 60.7258 212.694 60.2091 210.286 59.1751C207.877 58.1417 205.796 56.6544 204.042 54.7136C202.288 52.7517 200.925 50.3784 199.954 47.5938C199.003 44.8091 198.527 41.6659 198.527 38.164V35.9806C198.527 32.4575 199.003 29.3143 199.954 26.5508C200.925 23.7661 202.278 21.3928 204.01 19.4309C205.743 17.469 207.814 15.9712 210.223 14.9375C212.631 13.9038 215.282 13.387 218.177 13.387C221.094 13.387 223.745 13.9038 226.133 14.9375C228.541 15.9712 230.623 17.469 232.376 19.4309C234.13 21.3928 235.482 23.7661 236.433 26.5508C237.384 29.3143 237.859 32.4575 237.859 35.9806ZM228.256 38.164V35.9173C228.256 33.4702 228.023 31.3184 227.559 29.462C227.115 27.6056 226.46 26.0444 225.593 24.7787C224.748 23.513 223.703 22.5636 222.456 21.9308C221.209 21.2768 219.783 20.9498 218.177 20.9498C216.572 20.9498 215.146 21.2768 213.899 21.9308C212.652 22.5636 211.606 23.513 210.761 24.7787C209.916 26.0444 209.271 27.6056 208.828 29.462C208.384 31.3184 208.162 33.4702 208.162 35.9173V38.164C208.162 40.59 208.384 42.7418 208.828 44.6193C209.271 46.4757 209.916 48.0473 210.761 49.3342C211.628 50.5999 212.684 51.5598 213.931 52.2138C215.198 52.8677 216.635 53.1947 218.241 53.1947C219.847 53.1947 221.262 52.8677 222.488 52.2138C223.734 51.5598 224.78 50.5999 225.625 49.3342C226.492 48.0473 227.146 46.4757 227.59 44.6193C228.034 42.7418 228.256 40.59 228.256 38.164ZM270.218 14.0199H279.694V44.4611C279.694 48.0051 278.934 50.9902 277.412 53.4162C275.913 55.8422 273.831 57.667 271.169 58.8906C268.528 60.1142 265.485 60.7258 262.041 60.7258C258.597 60.7258 255.533 60.1142 252.85 58.8906C250.188 57.667 248.096 55.8422 246.575 53.4162C245.075 50.9902 244.325 48.0051 244.325 44.4611V14.0199H253.833V44.4611C253.833 46.5284 254.16 48.2161 254.815 49.524C255.47 50.832 256.41 51.7918 257.636 52.4036C258.882 53.0154 260.351 53.3213 262.041 53.3213C263.774 53.3213 265.242 53.0154 266.447 52.4036C267.672 51.7918 268.601 50.832 269.235 49.524C269.89 48.2161 270.218 46.5284 270.218 44.4611V14.0199ZM318.487 52.6884V60.093H293.925V52.6884H318.487ZM297.031 14.0199V60.093H287.523V14.0199H297.031ZM315.286 32.7846V39.9993H293.925V32.7846H315.286ZM318.456 14.0199V21.4561H293.925V14.0199H318.456Z" fill="black"/>
<path d="M35.0846 52.6884H35.6747V52.0992H35.0846V52.6884ZM35.0846 60.093V60.6822H35.6747V60.093H35.0846ZM10.5222 60.093H9.93214V60.6822H10.5222V60.093ZM10.5222 52.6884V52.0992H9.93214V52.6884H10.5222ZM13.6282 14.0199H14.2183V13.4307H13.6282V14.0199ZM13.6282 60.093V60.6822H14.2183V60.093H13.6282ZM4.12016 60.093H3.53009V60.6822H4.12016V60.093ZM4.12016 14.0199V13.4307H3.53009V14.0199H4.12016ZM31.8836 32.7846H32.4737V32.1954H31.8836V32.7846ZM31.8836 39.9993V40.5885H32.4737V39.9993H31.8836ZM10.5222 39.9993H9.93214V40.5885H10.5222V39.9993ZM10.5222 32.7846V32.1954H9.93214V32.7846H10.5222ZM35.0529 14.0199H35.643V13.4307H35.0529V14.0199ZM35.0529 21.4561V22.0453H35.643V21.4561H35.0529ZM10.5222 21.4561H9.93214V22.0453H10.5222V21.4561ZM10.5222 14.0199V13.4307H9.93214V14.0199H10.5222ZM34.4945 52.6884V60.093H35.6747V52.6884H34.4945ZM35.0846 59.5039H10.5222V60.6822H35.0846V59.5039ZM11.1123 60.093V52.6884H9.93214V60.093H11.1123ZM10.5222 53.2775H35.0846V52.0992H10.5222V53.2775ZM13.0381 14.0199V60.093H14.2183V14.0199H13.0381ZM13.6282 59.5039H4.12016V60.6822H13.6282V59.5039ZM4.71024 60.093V14.0199H3.53009V60.093H4.71024ZM4.12016 14.609H13.6282V13.4307H4.12016V14.609ZM31.2935 32.7846V39.9993H32.4737V32.7846H31.2935ZM31.8836 39.4102H10.5222V40.5885H31.8836V39.4102ZM11.1123 39.9993V32.7846H9.93214V39.9993H11.1123ZM10.5222 33.3737H31.8836V32.1954H10.5222V33.3737ZM34.4629 14.0199V21.4561H35.643V14.0199H34.4629ZM35.0529 20.867H10.5222V22.0453H35.0529V20.867ZM11.1123 21.4561V14.0199H9.93214V21.4561H11.1123ZM10.5222 14.609H35.0529V13.4307H10.5222V14.609ZM64.2744 45.8218L63.7162 46.0132L63.7197 46.0239L63.7238 46.0344L64.2744 45.8218ZM62.9432 43.9864L62.5555 44.4307L62.5596 44.4343L62.5637 44.4378L62.9432 43.9864ZM55.5903 40.6006L55.4088 41.1611L55.4132 41.1626L55.5903 40.6006ZM49.6319 38.3222L49.3877 38.8585L49.39 38.8596L49.6319 38.3222ZM44.6877 35.3794L44.3174 35.8381L44.3212 35.8411L44.325 35.844L44.6877 35.3794ZM41.3282 31.4239L40.8079 31.7019L40.811 31.7075L41.3282 31.4239ZM41.3916 20.9815L41.9107 21.2616L41.9122 21.2587L41.3916 20.9815ZM44.9413 16.9311L45.2911 17.4056L45.2953 17.4024L44.9413 16.9311ZM50.3292 14.3047L50.1633 13.7393L50.1617 13.7398L50.3292 14.3047ZM72.0073 20.2537L71.5134 20.576L71.5158 20.5793L72.0073 20.2537ZM74.131 27.5634V28.1525H74.721V27.5634H74.131ZM64.6862 27.5634H64.0962V28.1525H64.6862V27.5634ZM63.8306 24.0193L63.309 24.2954L63.3125 24.3018L63.3161 24.3081L63.8306 24.0193ZM61.2951 21.5827L61.0195 22.1036L61.0237 22.1057L61.2951 21.5827ZM52.928 21.4561L53.1667 21.9949L53.171 21.9931L53.1753 21.9911L52.928 21.4561ZM50.4559 23.4497L50.9469 23.7765L50.9507 23.7707L50.4559 23.4497ZM50.2024 28.3544L49.6964 28.6575L49.7 28.6637L49.7039 28.6697L50.2024 28.3544ZM58.823 33.101L58.6483 33.6638L58.6521 33.6649L58.823 33.101ZM65.4468 35.6642L65.1831 36.1911L65.1854 36.1922L65.4468 35.6642ZM50.6778 59.8397L50.5207 60.4076L50.5257 60.4094L50.6778 59.8397ZM44.6243 57.0869L44.2918 57.5735L44.2944 57.5753L44.6243 57.0869ZM38.6977 45.6635V45.0744H38.1076V45.6635H38.6977ZM48.2374 45.6635H48.8274V45.0744H48.2374V45.6635ZM50.7728 51.7075L50.4148 52.1758L50.4207 52.1803L50.7728 51.7075ZM53.6886 53.0365L53.5481 53.6087L53.5505 53.6093L53.6886 53.0365ZM61.4851 52.7517L61.2514 52.2107L61.2473 52.2124L61.4851 52.7517ZM63.8625 50.8214L63.3657 50.5035L63.3627 50.5081L63.3598 50.5127L63.8625 50.8214ZM65.2445 48.0368C65.2445 47.1537 65.1087 46.3415 64.8243 45.6091L63.7238 46.0344C63.9469 46.6099 64.0643 47.2744 64.0643 48.0368H65.2445ZM64.832 45.6302C64.5588 44.8357 64.0431 44.1387 63.3226 43.535L62.5637 44.4378C63.1532 44.931 63.525 45.4577 63.7162 46.0132L64.832 45.6302ZM63.3308 43.5422C62.6186 42.9228 61.6456 42.3363 60.4342 41.7749L59.9373 42.8437C61.0927 43.3793 61.9577 43.9109 62.5555 44.4307L63.3308 43.5422ZM60.4342 41.7749C59.2192 41.2117 57.6612 40.6334 55.7673 40.0386L55.4132 41.1626C57.2802 41.749 58.7857 42.3099 59.9373 42.8437L60.4342 41.7749ZM55.7717 40.0399C53.6992 39.3711 51.7333 38.6193 49.8738 37.7849L49.39 38.8596C51.2914 39.7128 53.2978 40.4798 55.4088 41.1611L55.7717 40.0399ZM49.876 37.7859C48.0539 36.9589 46.4465 36.0011 45.0505 34.9146L44.325 35.844C45.8024 36.9937 47.4912 37.9978 49.3877 38.8585L49.876 37.7859ZM45.058 34.9207C43.6985 33.8267 42.6301 32.5665 41.8454 31.1402L40.811 31.7075C41.6744 33.2768 42.8456 34.6537 44.3174 35.8381L45.058 34.9207ZM41.8484 31.1459C41.0985 29.7469 40.7139 28.105 40.7139 26.2027H39.5338C39.5338 28.2664 39.9521 30.1053 40.8079 31.7019L41.8484 31.1459ZM40.7139 26.2027C40.7139 24.3726 41.1159 22.7297 41.9107 21.2616L40.8725 20.7014C39.977 22.3554 39.5338 24.1933 39.5338 26.2027H40.7139ZM41.9122 21.2587C42.7138 19.7582 43.8371 18.4743 45.2911 17.4056L44.5915 16.4566C43.003 17.6241 41.7598 19.0404 40.8709 20.7042L41.9122 21.2587ZM45.2953 17.4024C46.7534 16.3106 48.4842 15.4642 50.4966 14.8696L50.1617 13.7398C48.0328 14.3687 46.1717 15.2733 44.5872 16.4598L45.2953 17.4024ZM50.495 14.87C52.5258 14.2761 54.7616 13.9762 57.2066 13.9762V12.7979C54.6651 12.7979 52.316 13.1097 50.1633 13.7393L50.495 14.87ZM57.2066 13.9762C60.5374 13.9762 63.4152 14.575 65.8558 15.7527L66.3691 14.6919C63.7386 13.4225 60.6791 12.7979 57.2066 12.7979V13.9762ZM65.8558 15.7527C68.3052 16.9348 70.1834 18.5441 71.5134 20.576L72.5012 19.9314C71.0419 17.7019 68.9908 15.957 66.3691 14.6919L65.8558 15.7527ZM71.5158 20.5793C72.8623 22.6064 73.5409 24.928 73.5409 27.5634H74.721C74.721 24.7139 73.9834 22.1623 72.4994 19.928L71.5158 20.5793ZM74.131 26.9742H64.6862V28.1525H74.131V26.9742ZM65.2763 27.5634C65.2763 26.1286 64.9724 24.8446 64.3446 23.7305L63.3161 24.3081C63.8295 25.2192 64.0962 26.2978 64.0962 27.5634H65.2763ZM64.3517 23.7431C63.7409 22.5936 62.8033 21.6999 61.5665 21.0597L61.0237 22.1057C62.0687 22.6469 62.8216 23.3776 63.309 24.2954L64.3517 23.7431ZM61.5707 21.0618C60.3415 20.4134 58.8234 20.1076 57.0482 20.1076V21.2858C58.6958 21.2858 60.0093 21.5707 61.0195 22.1036L61.5707 21.0618ZM57.0482 20.1076C55.3439 20.1076 53.8797 20.3687 52.6807 20.9212L53.1753 21.9911C54.1737 21.5309 55.4563 21.2858 57.0482 21.2858V20.1076ZM52.6893 20.9173C51.5063 21.4398 50.5841 22.1719 49.9612 23.1286L50.9507 23.7707C51.4265 23.0399 52.1523 22.4429 53.1667 21.9949L52.6893 20.9173ZM49.965 23.1229C49.3479 24.0469 49.0418 25.0899 49.0418 26.2343H50.2219C50.2219 25.3114 50.4652 24.4979 50.9469 23.7765L49.965 23.1229ZM49.0418 26.2343C49.0418 27.1152 49.2578 27.9278 49.6964 28.6575L50.7083 28.0513C50.3863 27.5154 50.2219 26.9145 50.2219 26.2343H49.0418ZM49.7039 28.6697C50.1566 29.3833 50.8093 30.0271 51.6379 30.6085L52.3165 29.6445C51.5816 29.1289 51.0511 28.5913 50.7008 28.0392L49.7039 28.6697ZM51.6379 30.6085C52.4618 31.1865 53.4617 31.7222 54.6301 32.2191L55.0925 31.135C53.979 30.6615 53.0562 30.1634 52.3165 29.6445L51.6379 30.6085ZM54.6301 32.2191C55.7937 32.7139 57.1338 33.1952 58.6483 33.6638L58.9976 32.5383C57.5119 32.0786 56.2109 31.6106 55.0925 31.135L54.6301 32.2191ZM58.6521 33.6649C61.1417 34.4168 63.3173 35.2597 65.1831 36.1911L65.7106 35.1372C63.7734 34.17 61.5329 33.304 58.9939 32.5371L58.6521 33.6649ZM65.1854 36.1922C67.069 37.1222 68.6256 38.1578 69.8653 39.2941L70.6631 38.4261C69.3254 37.1997 67.6702 36.1047 65.7083 35.136L65.1854 36.1922ZM69.8653 39.2941C71.098 40.4239 72.0197 41.6971 72.6393 43.1146L73.7209 42.6431C73.0305 41.0651 72.0085 39.6591 70.6631 38.4261L69.8653 39.2941ZM72.6393 43.1146C73.2571 44.527 73.5727 46.143 73.5727 47.9735H74.7529C74.7529 46.0068 74.413 44.2264 73.7209 42.6431L72.6393 43.1146ZM73.5727 47.9735C73.5727 49.8996 73.1975 51.6016 72.4605 53.0923L73.5191 53.6136C74.3463 51.9399 74.7529 50.0557 74.7529 47.9735H73.5727ZM72.4605 53.0923C71.7223 54.587 70.6542 55.855 69.2469 56.8987L69.9509 57.8446C71.5016 56.6944 72.6941 55.2832 73.5191 53.6136L72.4605 53.0923ZM69.2469 56.8987C67.8343 57.9465 66.1378 58.7508 64.1475 59.3042L64.4644 60.4389C66.5727 59.8532 68.4049 58.9907 69.9509 57.8446L69.2469 56.8987ZM64.1475 59.3042C62.1584 59.8568 59.9202 60.1366 57.4285 60.1366V61.3149C60.0076 61.3149 62.3543 61.0257 64.4644 60.4389L64.1475 59.3042ZM57.4285 60.1366C55.1982 60.1366 52.9991 59.8479 50.8298 59.2706L50.5257 60.4094C52.7935 61.0127 55.0949 61.3149 57.4285 61.3149V60.1366ZM50.8349 59.2718C48.6748 58.6763 46.7158 57.7846 44.9542 56.5984L44.2944 57.5753C46.167 58.8363 48.2437 59.7796 50.5207 60.4076L50.8349 59.2718ZM44.9569 56.6002C43.2358 55.4277 41.8608 53.9339 40.8274 52.1132L39.8007 52.6941C40.9224 54.6706 42.4209 56.299 44.2918 57.5735L44.9569 56.6002ZM40.8274 52.1132C39.8089 50.3185 39.2878 48.1758 39.2878 45.6635H38.1076C38.1076 48.3408 38.6641 50.6915 39.8007 52.6941L40.8274 52.1132ZM38.6977 46.2527H48.2374V45.0744H38.6977V46.2527ZM47.6473 45.6635C47.6473 47.1555 47.8776 48.4557 48.3642 49.5429L49.4417 49.0622C49.0408 48.1665 48.8274 47.0405 48.8274 45.6635H47.6473ZM48.3642 49.5429C48.8449 50.6172 49.5276 51.4997 50.4148 52.1758L51.1308 51.2392C50.4123 50.6916 49.8484 49.971 49.4417 49.0622L48.3642 49.5429ZM50.4207 52.1803C51.3152 52.8443 52.3612 53.318 53.5481 53.6087L53.8292 52.4643C52.7764 52.2065 51.8785 51.7941 51.1249 51.2347L50.4207 52.1803ZM53.5505 53.6093C54.743 53.8959 56.0366 54.037 57.4285 54.037V52.8587C56.1158 52.8587 54.9163 52.7256 53.8268 52.4637L53.5505 53.6093ZM57.4285 54.037C59.126 54.037 60.5669 53.7989 61.7229 53.291L61.2473 52.2124C60.2908 52.6327 59.0268 52.8587 57.4285 52.8587V54.037ZM61.7188 53.2927C62.8836 52.791 63.7817 52.0764 64.3647 51.1302L63.3598 50.5127C62.9284 51.212 62.2416 51.7842 61.2514 52.2107L61.7188 53.2927ZM64.3588 51.1394C64.9518 50.2162 65.2445 49.1764 65.2445 48.0368H64.0643C64.0643 48.9646 63.8295 49.7812 63.3657 50.5035L64.3588 51.1394ZM101.26 14.0199H101.85V13.4307H101.26V14.0199ZM101.26 60.093V60.6822H101.85V60.093H101.26ZM91.7842 60.093H91.1941V60.6822H91.7842V60.093ZM91.7842 14.0199V13.4307H91.1941V14.0199H91.7842ZM115.459 14.0199H116.049V13.4307H115.459V14.0199ZM115.459 21.4561V22.0453H116.049V21.4561H115.459ZM77.8071 21.4561H77.217V22.0453H77.8071V21.4561ZM77.8071 14.0199V13.4307H77.217V14.0199H77.8071ZM100.67 14.0199V60.093H101.85V14.0199H100.67ZM101.26 59.5039H91.7842V60.6822H101.26V59.5039ZM92.3743 60.093V14.0199H91.1941V60.093H92.3743ZM91.7842 14.609H101.26V13.4307H91.7842V14.609ZM114.869 14.0199V21.4561H116.049V14.0199H114.869ZM115.459 20.867H77.8071V22.0453H115.459V20.867ZM78.3972 21.4561V14.0199H77.217V21.4561H78.3972ZM77.8071 14.609H115.459V13.4307H77.8071V14.609ZM225.055 53.258L225.421 52.7962L225.032 52.4879L224.661 52.8192L225.055 53.258ZM237.542 63.1307L237.929 63.5761L238.466 63.1101L237.908 62.6688L237.542 63.1307ZM231.552 68.3205L231.182 68.7794L231.567 69.0881L231.938 68.7653L231.552 68.3205ZM219.255 58.4475L218.861 58.0088L218.344 58.4719L218.885 58.9067L219.255 58.4475ZM236.433 47.5938L235.874 47.4037L235.873 47.4075L236.433 47.5938ZM232.408 54.7136L232.846 55.1083L232.848 55.1059L232.408 54.7136ZM204.042 54.7136L203.602 55.1059L203.604 55.1083L204.042 54.7136ZM199.954 47.5938L199.395 47.7839L199.396 47.7877L199.954 47.5938ZM199.954 26.5508L199.396 26.3569L199.396 26.3593L199.954 26.5508ZM226.133 14.9375L225.898 15.4781L225.9 15.4788L226.133 14.9375ZM236.433 26.5508L235.874 26.7409L235.875 26.7422L236.433 26.5508ZM227.559 29.462L226.985 29.5987L226.986 29.6048L227.559 29.462ZM225.593 24.7787L225.102 25.1055L225.107 25.1111L225.593 24.7787ZM222.456 21.9308L222.182 22.4524L222.189 22.456L222.456 21.9308ZM213.899 21.9308L214.166 22.456L214.173 22.4524L213.899 21.9308ZM208.828 44.6193L208.253 44.7546L208.254 44.7561L208.828 44.6193ZM210.761 49.3342L210.267 49.6572L210.271 49.6619L210.274 49.6666L210.761 49.3342ZM213.931 52.2138L213.656 52.7353L213.66 52.7372L213.931 52.2138ZM222.488 52.2138L222.213 51.6922L222.209 51.6942L222.488 52.2138ZM225.625 49.3342L225.135 49.0055L225.134 49.0074L225.625 49.3342ZM227.59 44.6193L228.164 44.7561L228.165 44.7546L227.59 44.6193ZM224.689 53.7199L237.176 63.5926L237.908 62.6688L225.421 52.7962L224.689 53.7199ZM237.155 62.6859L231.165 67.8757L231.938 68.7653L237.929 63.5761L237.155 62.6859ZM231.922 67.8615L219.625 57.9884L218.885 58.9067L231.182 68.7794L231.922 67.8615ZM219.649 58.8863L225.449 53.6967L224.661 52.8192L218.861 58.0088L219.649 58.8863ZM237.269 35.9806V38.164H238.449V35.9806H237.269ZM237.269 38.164C237.269 41.6132 236.801 44.6907 235.874 47.4037L236.991 47.7839C237.967 44.9277 238.449 41.7186 238.449 38.164H237.269ZM235.873 47.4075C234.966 50.1249 233.662 52.4258 231.967 54.3213L232.848 55.1059C234.661 53.0776 236.041 50.632 236.992 47.7801L235.873 47.4075ZM231.97 54.319C230.272 56.1976 228.271 57.6349 225.961 58.6348L226.431 59.716C228.896 58.6484 231.036 57.1112 232.846 55.1083L231.97 54.319ZM225.961 58.6348C223.656 59.6329 221.086 60.1366 218.241 60.1366V61.3149C221.227 61.3149 223.961 60.7853 226.431 59.716L225.961 58.6348ZM218.241 60.1366C215.418 60.1366 212.847 59.6329 210.519 58.6341L210.053 59.7166C212.542 60.7853 215.274 61.3149 218.241 61.3149V60.1366ZM210.519 58.6341C208.188 57.6339 206.177 56.1967 204.481 54.319L203.604 55.1083C205.415 57.1122 207.566 58.6494 210.053 59.7166L210.519 58.6341ZM204.482 54.3213C202.786 52.4239 201.461 50.1202 200.511 47.3999L199.396 47.7877C200.391 50.6366 201.79 53.0796 203.602 55.1059L204.482 54.3213ZM200.512 47.4037C199.586 44.6907 199.117 41.6132 199.117 38.164H197.937C197.937 41.7186 198.42 44.9277 199.395 47.7839L200.512 47.4037ZM199.117 38.164V35.9806H197.937V38.164H199.117ZM199.117 35.9806C199.117 32.5097 199.586 29.4329 200.512 26.7422L199.396 26.3593C198.42 29.1957 197.937 32.4054 197.937 35.9806H199.117ZM200.511 26.7446C201.461 24.0229 202.777 21.7184 204.453 19.8206L203.568 19.0413C201.779 21.0673 200.39 23.5093 199.396 26.3569L200.511 26.7446ZM204.453 19.8206C206.128 17.9241 208.127 16.4781 210.456 15.4788L209.989 14.3963C207.501 15.4644 205.358 17.0139 203.568 19.0413L204.453 19.8206ZM210.456 15.4788C212.783 14.4798 215.354 13.9762 218.177 13.9762V12.7979C215.211 12.7979 212.479 13.3279 209.989 14.3963L210.456 15.4788ZM218.177 13.9762C221.022 13.9762 223.592 14.4801 225.898 15.4781L226.367 14.397C223.897 13.3276 221.164 12.7979 218.177 12.7979V13.9762ZM225.9 15.4788C228.229 16.4784 230.239 17.9252 231.936 19.8232L232.816 19.0387C231.006 17.0129 228.854 15.4641 226.365 14.3963L225.9 15.4788ZM231.936 19.8232C233.631 21.7197 234.946 24.022 235.874 26.7409L236.991 26.3606C236.018 23.5103 234.629 21.066 232.816 19.0387L231.936 19.8232ZM235.875 26.7422C236.801 29.4329 237.269 32.5097 237.269 35.9806H238.449C238.449 32.4054 237.967 29.1957 236.991 26.3593L235.875 26.7422ZM228.846 38.164V35.9173H227.666V38.164H228.846ZM228.846 35.9173C228.846 33.4347 228.61 31.2331 228.131 29.3191L226.986 29.6048C227.437 31.4037 227.666 33.5057 227.666 35.9173H228.846ZM228.132 29.3252C227.676 27.4153 226.997 25.784 226.081 24.4463L225.107 25.1111C225.923 26.3049 226.554 27.7957 226.985 29.5987L228.132 29.3252ZM226.085 24.4519C225.189 23.1097 224.069 22.0884 222.723 21.4056L222.189 22.456C223.337 23.0389 224.309 23.9162 225.102 25.1055L226.085 24.4519ZM222.73 21.4093C221.388 20.705 219.866 20.3607 218.177 20.3607V21.539C219.701 21.539 221.031 21.8487 222.182 22.4524L222.73 21.4093ZM218.177 20.3607C216.49 20.3607 214.967 20.705 213.624 21.4093L214.173 22.4524C215.324 21.8487 216.654 21.539 218.177 21.539V20.3607ZM213.631 21.4056C212.287 22.0884 211.166 23.1097 210.27 24.4519L211.252 25.1055C212.046 23.9162 213.018 23.039 214.166 22.456L213.631 21.4056ZM210.27 24.4519C209.378 25.7883 208.71 27.4176 208.254 29.3252L209.402 29.5987C209.833 27.7935 210.454 26.3007 211.252 25.1055L210.27 24.4519ZM208.254 29.3252C207.797 31.237 207.572 33.4364 207.572 35.9173H208.752C208.752 33.504 208.972 31.3999 209.402 29.5987L208.254 29.3252ZM207.572 35.9173V38.164H208.752V35.9173H207.572ZM207.572 38.164C207.572 40.6244 207.797 42.8231 208.253 44.7546L209.402 44.484C208.971 42.6605 208.752 40.5556 208.752 38.164H207.572ZM208.254 44.7561C208.71 46.6634 209.378 48.3016 210.267 49.6572L211.255 49.0111C210.454 47.7931 209.833 46.288 209.402 44.4825L208.254 44.7561ZM210.274 49.6666C211.19 51.0044 212.317 52.0326 213.656 52.7353L214.205 51.6922C213.051 51.087 212.065 50.1954 211.248 49.0018L210.274 49.6666ZM213.66 52.7372C215.021 53.4395 216.553 53.7839 218.241 53.7839V52.6056C216.718 52.6056 215.375 52.296 214.201 51.6904L213.66 52.7372ZM218.241 53.7839C219.929 53.7839 221.442 53.4396 222.766 52.7333L222.209 51.6942C221.082 52.2958 219.765 52.6056 218.241 52.6056V53.7839ZM222.762 52.7353C224.103 52.0318 225.221 51.0018 226.116 49.661L225.134 49.0074C224.339 50.1981 223.365 51.0878 222.213 51.6922L222.762 52.7353ZM226.115 49.6628C227.028 48.3058 227.708 46.6657 228.164 44.7561L227.017 44.4825C226.585 46.2858 225.955 47.7889 225.135 49.0055L226.115 49.6628ZM228.165 44.7546C228.621 42.8231 228.846 40.6244 228.846 38.164H227.666C227.666 40.5556 227.447 42.6605 227.016 44.484L228.165 44.7546ZM270.218 14.0199V13.4307H269.628V14.0199H270.218ZM279.694 14.0199H280.284V13.4307H279.694V14.0199ZM277.412 53.4162L276.912 53.1036L276.91 53.1067L277.412 53.4162ZM271.169 58.8906L270.922 58.3554L270.92 58.3562L271.169 58.8906ZM252.85 58.8906L252.603 59.4255L252.605 59.4267L252.85 58.8906ZM246.575 53.4162L246.072 53.7257L246.075 53.7289L246.575 53.4162ZM244.325 14.0199V13.4307H243.735V14.0199H244.325ZM253.833 14.0199H254.423V13.4307H253.833V14.0199ZM257.636 52.4036L257.372 52.9306L257.375 52.9324L257.636 52.4036ZM266.447 52.4036L266.183 51.8767L266.179 51.8786L266.447 52.4036ZM269.235 49.524L268.708 49.2606L268.704 49.2675L269.235 49.524ZM270.218 14.609H279.694V13.4307H270.218V14.609ZM279.104 14.0199V44.4611H280.284V14.0199H279.104ZM279.104 44.4611C279.104 47.9209 278.362 50.7913 276.912 53.1036L277.912 53.7289C279.505 51.1891 280.284 48.0895 280.284 44.4611H279.104ZM276.91 53.1067C275.473 55.4313 273.482 57.179 270.922 58.3554L271.416 59.4255C274.18 58.155 276.352 56.2531 277.915 53.7257L276.91 53.1067ZM270.92 58.3562C268.37 59.5375 265.415 60.1366 262.041 60.1366V61.3149C265.556 61.3149 268.685 60.6904 271.417 59.4249L270.92 58.3562ZM262.041 60.1366C258.668 60.1366 255.689 59.5375 253.095 58.3547L252.605 59.4267C255.377 60.6904 258.527 61.3149 262.041 61.3149V60.1366ZM253.097 58.3554C250.536 57.1787 248.534 55.4301 247.075 53.1036L246.075 53.7289C247.658 56.2544 249.839 58.1554 252.603 59.4255L253.097 58.3554ZM247.077 53.1067C245.646 50.7939 244.915 47.9223 244.915 44.4611H243.735C243.735 48.088 244.502 51.1865 246.072 53.7257L247.077 53.1067ZM244.915 44.4611V14.0199H243.735V44.4611H244.915ZM244.325 14.609H253.833V13.4307H244.325V14.609ZM253.242 14.0199V44.4611H254.423V14.0199H253.242ZM253.242 44.4611C253.242 46.5845 253.578 48.3711 254.287 49.7875L255.343 49.2606C254.742 48.0611 254.423 46.4724 254.423 44.4611H253.242ZM254.287 49.7875C254.995 51.2011 256.024 52.2577 257.372 52.9306L257.899 51.8767C256.796 51.3259 255.945 50.4629 255.343 49.2606L254.287 49.7875ZM257.375 52.9324C258.719 53.5916 260.28 53.9105 262.041 53.9105V52.7322C260.422 52.7322 259.046 52.4392 257.896 51.8749L257.375 52.9324ZM262.041 53.9105C263.841 53.9105 265.407 53.5928 266.714 52.9287L266.179 51.8786C265.078 52.438 263.706 52.7322 262.041 52.7322V53.9105ZM266.71 52.9306C268.06 52.2568 269.08 51.1979 269.767 49.7807L268.704 49.2675C268.124 50.4661 267.284 51.3268 266.183 51.8767L266.71 52.9306ZM269.763 49.7875C270.473 48.3711 270.808 46.5845 270.808 44.4611H269.628C269.628 46.4724 269.308 48.0611 268.708 49.2606L269.763 49.7875ZM270.808 44.4611V14.0199H269.628V44.4611H270.808ZM318.487 52.6884H319.077V52.0992H318.487V52.6884ZM318.487 60.093V60.6822H319.077V60.093H318.487ZM293.924 60.093H293.334V60.6822H293.924V60.093ZM293.924 52.6884V52.0992H293.334V52.6884H293.924ZM297.031 14.0199H297.621V13.4307H297.031V14.0199ZM297.031 60.093V60.6822H297.621V60.093H297.031ZM287.523 60.093H286.933V60.6822H287.523V60.093ZM287.523 14.0199V13.4307H286.933V14.0199H287.523ZM315.286 32.7846H315.876V32.1954H315.286V32.7846ZM315.286 39.9993V40.5885H315.876V39.9993H315.286ZM293.924 39.9993H293.334V40.5885H293.924V39.9993ZM293.924 32.7846V32.1954H293.334V32.7846H293.924ZM318.456 14.0199H319.046V13.4307H318.456V14.0199ZM318.456 21.4561V22.0453H319.046V21.4561H318.456ZM293.924 21.4561H293.334V22.0453H293.924V21.4561ZM293.924 14.0199V13.4307H293.334V14.0199H293.924ZM317.897 52.6884V60.093H319.077V52.6884H317.897ZM318.487 59.5039H293.924V60.6822H318.487V59.5039ZM294.515 60.093V52.6884H293.334V60.093H294.515ZM293.924 53.2775H318.487V52.0992H293.924V53.2775ZM296.441 14.0199V60.093H297.621V14.0199H296.441ZM297.031 59.5039H287.523V60.6822H297.031V59.5039ZM288.113 60.093V14.0199H286.933V60.093H288.113ZM287.523 14.609H297.031V13.4307H287.523V14.609ZM314.696 32.7846V39.9993H315.876V32.7846H314.696ZM315.286 39.4102H293.924V40.5885H315.286V39.4102ZM294.515 39.9993V32.7846H293.334V39.9993H294.515ZM293.924 33.3737H315.286V32.1954H293.924V33.3737ZM317.866 14.0199V21.4561H319.046V14.0199H317.866ZM318.456 20.867H293.924V22.0453H318.456V20.867ZM294.515 21.4561V14.0199H293.334V21.4561H294.515ZM293.924 14.609H318.456V13.4307H293.924V14.609Z" fill="black"/>
</g>
<path d="M190.594 32.6924C190.609 38.6246 188.68 44.3991 185.098 49.1359C184.901 49.3976 184.654 49.618 184.371 49.7845C184.089 49.951 183.776 50.0604 183.451 50.1063C183.126 50.1523 182.795 50.134 182.477 50.0524C182.159 49.9709 181.861 49.8277 181.599 49.631C181.336 49.4343 181.115 49.188 180.948 48.9061C180.781 48.6243 180.672 48.3124 180.625 47.9883C180.579 47.6641 180.597 47.3342 180.679 47.0171C180.761 46.7001 180.905 46.4022 181.102 46.1405C184.033 42.2678 185.612 37.5445 185.598 32.6924C185.598 26.7466 183.23 21.0443 179.014 16.84C174.797 12.6357 169.08 10.2737 163.118 10.2737C157.155 10.2737 151.438 12.6357 147.222 16.84C143.005 21.0443 140.637 26.7466 140.637 32.6924C140.637 33.3531 140.374 33.9866 139.906 34.4538C139.437 34.9209 138.802 35.1834 138.139 35.1834C137.477 35.1834 136.842 34.9209 136.373 34.4538C135.905 33.9866 135.641 33.3531 135.641 32.6924C135.64 30.1787 135.986 27.6767 136.669 25.2569C136.328 25.2195 135.985 25.2195 135.641 25.2195C131.667 25.2195 127.855 26.7941 125.044 29.597C122.234 32.3999 120.655 36.2015 120.655 40.1653C120.655 44.1292 122.234 47.9307 125.044 50.7336C127.855 53.5365 131.667 55.1111 135.641 55.1111H143.135C143.797 55.1111 144.433 55.3735 144.901 55.8407C145.37 56.3078 145.633 56.9414 145.633 57.6021C145.633 58.2627 145.37 58.8963 144.901 59.3637C144.433 59.8309 143.797 60.093 143.135 60.093H135.641C132.895 60.0936 130.177 59.5292 127.658 58.4356C125.14 57.3417 122.875 55.7418 121.003 53.7356C119.133 51.7294 117.697 49.3602 116.786 46.7758C115.874 44.1914 115.507 41.4473 115.707 38.7151C115.908 35.9829 116.67 33.3211 117.948 30.896C119.225 28.4708 120.991 26.3345 123.134 24.6204C125.277 22.9063 127.751 21.6512 130.402 20.9335C133.053 20.2158 135.824 20.051 138.542 20.4493C141.31 14.9292 145.865 10.5025 151.47 7.88622C157.075 5.26995 163.401 4.61734 169.425 6.03411C175.448 7.4509 180.816 10.854 184.658 15.6924C188.5 20.5307 190.591 26.5208 190.594 32.6924ZM162.387 30.9301C162.155 30.6985 161.88 30.5147 161.576 30.3893C161.273 30.264 160.948 30.1995 160.62 30.1995C160.292 30.1995 159.967 30.264 159.663 30.3893C159.36 30.5147 159.084 30.6985 158.852 30.9301L148.861 40.8939C148.629 41.1253 148.445 41.4001 148.32 41.7025C148.194 42.0049 148.129 42.3289 148.129 42.6563C148.129 42.9835 148.194 43.3076 148.32 43.61C148.445 43.9125 148.629 44.1872 148.861 44.4186C149.33 44.886 149.965 45.1486 150.629 45.1486C150.957 45.1486 151.282 45.0841 151.585 44.9589C151.888 44.8336 152.163 44.6501 152.396 44.4186L158.122 38.705V57.6021C158.122 58.2627 158.385 58.8963 158.854 59.3637C159.322 59.8309 159.957 60.093 160.62 60.093C161.282 60.093 161.917 59.8309 162.386 59.3637C162.854 58.8963 163.118 58.2627 163.118 57.6021V38.705L168.844 44.4186C169.076 44.6501 169.352 44.8336 169.654 44.9589C169.958 45.0841 170.283 45.1486 170.611 45.1486C170.94 45.1486 171.264 45.0841 171.567 44.9589C171.871 44.8336 172.146 44.6501 172.378 44.4186C172.61 44.1872 172.794 43.9125 172.92 43.61C173.046 43.3076 173.11 42.9835 173.11 42.6563C173.11 42.3289 173.046 42.0049 172.92 41.7025C172.794 41.4001 172.61 41.1253 172.378 40.8939L162.387 30.9301Z" fill="black"/>
</g>
<defs>
<filter id="filter0_d_2_430" x="-0.46991" y="12.7979" width="323.547" height="64.2903" filterUnits="userSpaceOnUse" color-interpolation-filters="sRGB">
<feFlood flood-opacity="0" result="BackgroundImageFix"/>
<feColorMatrix in="SourceAlpha" type="matrix" values="0 0 0 0 0 0 0 0 0 0 0 0 0 0 0 0 0 0 127 0" result="hardAlpha"/>
<feOffset dy="4"/>
<feGaussianBlur stdDeviation="2"/>
<feComposite in2="hardAlpha" operator="out"/>
<feColorMatrix type="matrix" values="0 0 0 0 0 0 0 0 0 0 0 0 0 0 0 0 0 0 0.25 0"/>
<feBlend mode="normal" in2="BackgroundImageFix" result="effect1_dropShadow_2_430"/>
<feBlend mode="normal" in="SourceGraphic" in2="effect1_dropShadow_2_430" result="shape"/>
</filter>
<clipPath id="clip0_2_430">
<rect width="321" height="76" fill="white"/>
</clipPath>
</defs>
</svg>
