<svg width="252" height="60" viewBox="0 0 252 60" fill="none" xmlns="http://www.w3.org/2000/svg">
<g clip-path="url(#clip0_8_3)">
<g filter="url(#filter0_d_8_3)">
<path d="M27.5429 41.5961V47.4419H8.26028V41.5961H27.5429ZM10.6986 11.0683V47.4419H3.23438V11.0683H10.6986ZM25.03 25.8826V31.5784H8.26028V25.8826H25.03ZM27.518 11.0683V16.939H8.26028V11.0683H27.518ZM50.7566 37.9238C50.7566 37.2742 50.657 36.6913 50.4582 36.1751C50.2757 35.6421 49.9274 35.1591 49.4132 34.7261C48.899 34.2764 48.1773 33.8351 47.2485 33.4021C46.3196 32.9691 45.117 32.5194 43.6408 32.0531C41.9987 31.5201 40.4395 30.9206 38.9632 30.2544C37.5035 29.5882 36.2097 28.8137 35.0818 27.9311C33.9704 27.0317 33.0913 25.9908 32.4445 24.8083C31.8141 23.6259 31.4989 22.2519 31.4989 20.6863C31.4989 19.1707 31.8307 17.7967 32.4942 16.5643C33.1577 15.3152 34.0866 14.2493 35.2808 13.3666C36.4751 12.4673 37.8851 11.7761 39.5106 11.2932C41.1527 10.8102 42.9524 10.5687 44.9097 10.5687C47.5802 10.5687 49.9107 11.0517 51.9012 12.0176C53.8917 12.9836 55.4343 14.3076 56.5289 15.9897C57.6402 17.6719 58.1961 19.5954 58.1961 21.7606H50.7816C50.7816 20.6946 50.5578 19.762 50.1099 18.9626C49.6786 18.1465 49.0153 17.5053 48.1194 17.039C47.2401 16.5726 46.1289 16.3395 44.7853 16.3395C43.4915 16.3395 42.4133 16.5393 41.5508 16.939C40.6883 17.3221 40.0414 17.8467 39.6101 18.5129C39.1788 19.1624 38.9632 19.8952 38.9632 20.7113C38.9632 21.3275 39.1125 21.8854 39.411 22.3851C39.7262 22.8847 40.1907 23.3511 40.8044 23.784C41.4181 24.2171 42.1728 24.6251 43.0685 25.0082C43.9642 25.3912 45.001 25.7659 46.1786 26.1324C48.1527 26.7319 49.8857 27.4064 51.3787 28.1559C52.8884 28.9053 54.1488 29.7464 55.1605 30.6791C56.1722 31.6117 56.9357 32.6692 57.4498 33.8517C57.964 35.0342 58.2211 36.3749 58.2211 37.8738C58.2211 39.456 57.914 40.8716 57.3002 42.1207C56.6864 43.3698 55.7993 44.4274 54.638 45.2934C53.4771 46.1594 52.0921 46.8172 50.4828 47.267C48.874 47.7167 47.0743 47.9414 45.0839 47.9414C43.2925 47.9414 41.5259 47.7084 39.7843 47.2419C38.0426 46.7591 36.4585 46.0346 35.032 45.0686C33.6221 44.1026 32.4942 42.8702 31.6482 41.3712C30.8023 39.8724 30.3794 38.0986 30.3794 36.0501H37.8684C37.8684 37.1826 38.0426 38.1403 38.391 38.9231C38.7393 39.7058 39.2286 40.3387 39.8589 40.8217C40.5058 41.3046 41.2688 41.6544 42.1479 41.8709C43.0436 42.0874 44.0223 42.1957 45.0839 42.1957C46.3776 42.1957 47.4393 42.0125 48.2685 41.6461C49.1144 41.2797 49.7365 40.7717 50.1349 40.1222C50.5495 39.4726 50.7566 38.7399 50.7566 37.9238ZM79.4938 11.0683V47.4419H72.0547V11.0683H79.4938ZM90.6407 11.0683V16.939H61.0821V11.0683H90.6407ZM176.678 42.0458L186.481 49.84L181.779 53.9372L172.125 46.1428L176.678 42.0458ZM186.73 28.4057V30.1294C186.73 32.8941 186.357 35.3756 185.611 37.574C184.881 39.7724 183.827 41.6461 182.451 43.1949C181.074 44.7272 179.448 45.9013 177.574 46.7172C175.7 47.5335 173.618 47.9414 171.329 47.9414C169.057 47.9414 166.975 47.5335 165.084 46.7172C163.193 45.9013 161.559 44.7272 160.182 43.1949C158.806 41.6461 157.736 39.7724 156.973 37.574C156.226 35.3756 155.853 32.8941 155.853 30.1294V28.4057C155.853 25.6244 156.226 23.1429 156.973 20.9611C157.736 18.7627 158.797 16.8891 160.157 15.3402C161.518 13.7913 163.143 12.6088 165.034 11.7928C166.925 10.9767 169.007 10.5687 171.279 10.5687C173.569 10.5687 175.65 10.9767 177.525 11.7928C179.416 12.6088 181.049 13.7913 182.426 15.3402C183.803 16.8891 184.864 18.7627 185.611 20.9611C186.357 23.1429 186.73 25.6244 186.73 28.4057ZM179.191 30.1294V28.3557C179.191 26.4238 179.009 24.7251 178.644 23.2594C178.296 21.7939 177.782 20.5614 177.101 19.5621C176.438 18.5629 175.617 17.8134 174.638 17.3138C173.659 16.7975 172.54 16.5393 171.279 16.5393C170.019 16.5393 168.899 16.7975 167.92 17.3138C166.942 17.8134 166.121 18.5629 165.457 19.5621C164.794 20.5614 164.288 21.7939 163.939 23.2594C163.591 24.7251 163.417 26.4238 163.417 28.3557V30.1294C163.417 32.0447 163.591 33.7435 163.939 35.2258C164.288 36.6913 164.794 37.9321 165.457 38.948C166.137 39.9473 166.967 40.7051 167.945 41.2214C168.94 41.7377 170.068 41.9958 171.329 41.9958C172.59 41.9958 173.701 41.7377 174.663 41.2214C175.642 40.7051 176.463 39.9473 177.126 38.948C177.806 37.9321 178.32 36.6913 178.669 35.2258C179.017 33.7435 179.191 32.0447 179.191 30.1294ZM212.133 11.0683H219.573V35.1008C219.573 37.8988 218.976 40.2554 217.782 42.1707C216.604 44.0859 214.97 45.5266 212.88 46.4926C210.807 47.4586 208.418 47.9414 205.714 47.9414C203.01 47.9414 200.605 47.4586 198.499 46.4926C196.409 45.5266 194.767 44.0859 193.572 42.1707C192.395 40.2554 191.806 37.8988 191.806 35.1008V11.0683H199.27V35.1008C199.27 36.733 199.527 38.0653 200.042 39.0979C200.556 40.1305 201.294 40.8883 202.256 41.3712C203.235 41.8543 204.387 42.0958 205.714 42.0958C207.074 42.0958 208.227 41.8543 209.173 41.3712C210.135 40.8883 210.865 40.1305 211.362 39.0979C211.876 38.0653 212.133 36.733 212.133 35.1008V11.0683ZM250.027 41.5961V47.4419H230.744V41.5961H250.027ZM233.183 11.0683V47.4419H225.719V11.0683H233.183ZM247.514 25.8826V31.5784H230.744V25.8826H247.514ZM250.002 11.0683V16.939H230.744V11.0683H250.002Z" fill="#F5F3F5"/>
<path d="M27.543 41.5961H28.0063V41.131H27.543V41.5961ZM27.543 47.4419V47.907H28.0063V47.4419H27.543ZM8.26038 47.4419H7.79715V47.907H8.26038V47.4419ZM8.26038 41.5961V41.131H7.79715V41.5961H8.26038ZM10.6987 11.0683H11.162V10.6032H10.6987V11.0683ZM10.6987 47.4419V47.907H11.162V47.4419H10.6987ZM3.23448 47.4419H2.77124V47.907H3.23448V47.4419ZM3.23448 11.0683V10.6032H2.77124V11.0683H3.23448ZM25.0301 25.8826H25.4933V25.4174H25.0301V25.8826ZM25.0301 31.5784V32.0435H25.4933V31.5784H25.0301ZM8.26038 31.5784H7.79715V32.0435H8.26038V31.5784ZM8.26038 25.8826V25.4174H7.79715V25.8826H8.26038ZM27.5181 11.0683H27.9814V10.6032H27.5181V11.0683ZM27.5181 16.939V17.4041H27.9814V16.939H27.5181ZM8.26038 16.939H7.79715V17.4041H8.26038V16.939ZM8.26038 11.0683V10.6032H7.79715V11.0683H8.26038ZM27.0798 41.5961V47.4419H28.0063V41.5961H27.0798ZM27.543 46.9767H8.26038V47.907H27.543V46.9767ZM8.72362 47.4419V41.5961H7.79715V47.4419H8.72362ZM8.26038 42.0612H27.543V41.131H8.26038V42.0612ZM10.2355 11.0683V47.4419H11.162V11.0683H10.2355ZM10.6987 46.9767H3.23448V47.907H10.6987V46.9767ZM3.69771 47.4419V11.0683H2.77124V47.4419H3.69771ZM3.23448 11.5334H10.6987V10.6032H3.23448V11.5334ZM24.5668 25.8826V31.5784H25.4933V25.8826H24.5668ZM25.0301 31.1133H8.26038V32.0435H25.0301V31.1133ZM8.72362 31.5784V25.8826H7.79715V31.5784H8.72362ZM8.26038 26.3477H25.0301V25.4174H8.26038V26.3477ZM27.0549 11.0683V16.939H27.9814V11.0683H27.0549ZM27.5181 16.4739H8.26038V17.4041H27.5181V16.4739ZM8.72362 16.939V11.0683H7.79715V16.939H8.72362ZM8.26038 11.5334H27.5181V10.6032H8.26038V11.5334ZM50.4583 36.1751L50.0201 36.3262L50.0229 36.3346L50.0261 36.343L50.4583 36.1751ZM49.4133 34.7261L49.1089 35.0768L49.1122 35.0797L49.1154 35.0825L49.4133 34.7261ZM43.6409 32.0531L43.4984 32.4956L43.5019 32.4967L43.6409 32.0531ZM38.9633 30.2544L38.7716 30.6778L38.7734 30.6786L38.9633 30.2544ZM35.0819 27.9311L34.7912 28.2932L34.7941 28.2956L34.7971 28.2979L35.0819 27.9311ZM32.4446 24.8083L32.0361 25.0278L32.0385 25.0322L32.4446 24.8083ZM32.4943 16.5643L32.9018 16.7855L32.903 16.7832L32.4943 16.5643ZM35.2809 13.3666L35.5556 13.7413L35.5589 13.7387L35.2809 13.3666ZM39.5107 11.2932L39.3805 10.8468L39.3792 10.8472L39.5107 11.2932ZM56.529 15.9897L56.1413 16.2442L56.1432 16.2468L56.529 15.9897ZM58.1962 21.7606V22.2257H58.6595V21.7606H58.1962ZM50.7817 21.7606H50.3184V22.2257H50.7817V21.7606ZM50.11 18.9626L49.7005 19.1806L49.7033 19.1856L49.7061 19.1906L50.11 18.9626ZM48.1195 17.039L47.9031 17.4502L47.9064 17.4519L48.1195 17.039ZM41.5509 16.939L41.7383 17.3644L41.7417 17.3629L41.745 17.3613L41.5509 16.939ZM39.6102 18.5129L39.9957 18.7709L39.9986 18.7664L39.6102 18.5129ZM39.4112 22.3851L39.0139 22.6244L39.0168 22.6292L39.0198 22.6339L39.4112 22.3851ZM46.1787 26.1324L46.0416 26.5766L46.0446 26.5775L46.1787 26.1324ZM51.3788 28.1559L51.1717 28.5719L51.1736 28.5728L51.3788 28.1559ZM39.7844 47.2419L39.6611 47.6902L39.665 47.6916L39.7844 47.2419ZM35.0321 45.0686L34.7711 45.4528L34.7732 45.4542L35.0321 45.0686ZM30.3795 36.0501V35.585H29.9162V36.0501H30.3795ZM37.8685 36.0501H38.3318V35.585H37.8685V36.0501ZM39.859 40.8217L39.578 41.1914L39.5826 41.1949L39.859 40.8217ZM42.148 41.8709L42.0377 42.3226L42.0396 42.3231L42.148 41.8709ZM48.2686 41.6461L48.0852 41.219L48.0819 41.2203L48.2686 41.6461ZM50.135 40.1222L49.745 39.8712L49.7426 39.8748L49.7403 39.8784L50.135 40.1222ZM51.2199 37.9238C51.2199 37.2266 51.1134 36.5854 50.8901 36.0072L50.0261 36.343C50.2012 36.7973 50.2934 37.3219 50.2934 37.9238H51.2199ZM50.8961 36.0239C50.6816 35.3966 50.2768 34.8464 49.7111 34.3697L49.1154 35.0825C49.5782 35.4719 49.87 35.8876 50.0201 36.3262L50.8961 36.0239ZM49.7176 34.3754C49.1585 33.8864 48.3946 33.4234 47.4436 32.9802L47.0536 33.8239C47.9606 34.2468 48.6397 34.6665 49.1089 35.0768L49.7176 34.3754ZM47.4436 32.9802C46.4898 32.5356 45.2667 32.079 43.7799 31.6094L43.5019 32.4967C44.9676 32.9597 46.1495 33.4025 47.0536 33.8239L47.4436 32.9802ZM43.7834 31.6105C42.1563 31.0824 40.613 30.4889 39.1532 29.8301L38.7734 30.6786C40.2661 31.3522 41.8412 31.9578 43.4984 32.4956L43.7834 31.6105ZM39.155 29.8309C37.7245 29.1781 36.4627 28.4219 35.3667 27.5642L34.7971 28.2979C35.957 29.2056 37.2828 29.9983 38.7716 30.6778L39.155 29.8309ZM35.3726 27.5689C34.3053 26.7053 33.4666 25.7104 32.8505 24.5844L32.0385 25.0322C32.7163 26.2712 33.6358 27.3582 34.7912 28.2932L35.3726 27.5689ZM32.8529 24.5888C32.2642 23.4844 31.9623 22.1881 31.9623 20.6863H31.0358C31.0358 22.3156 31.3642 23.7673 32.0361 25.0278L32.8529 24.5888ZM31.9623 20.6863C31.9623 19.2415 32.2778 17.9445 32.9018 16.7855L32.0868 16.3432C31.3838 17.649 31.0358 19.1 31.0358 20.6863H31.9623ZM32.903 16.7832C33.5323 15.5986 34.4141 14.585 35.5556 13.7413L35.0063 12.992C33.7593 13.9138 32.7833 15.0319 32.0856 16.3454L32.903 16.7832ZM35.5589 13.7387C36.7035 12.8767 38.0623 12.2086 39.6421 11.7392L39.3792 10.8472C37.708 11.3437 36.2469 12.0579 35.003 12.9946L35.5589 13.7387ZM39.6409 11.7395C41.2352 11.2706 42.9904 11.0338 44.9098 11.0338V10.1036C42.9146 10.1036 41.0705 10.3497 39.3805 10.8468L39.6409 11.7395ZM44.9098 11.0338C47.5247 11.0338 49.7839 11.5066 51.6998 12.4364L52.1028 11.5988C50.0377 10.5967 47.6358 10.1036 44.9098 10.1036V11.0338ZM51.6998 12.4364C53.6227 13.3695 55.0972 14.64 56.1413 16.2442L56.9168 15.7353C55.7712 13.9752 54.161 12.5976 52.1028 11.5988L51.6998 12.4364ZM56.1432 16.2468C57.2003 17.8472 57.733 19.6799 57.733 21.7606H58.6595C58.6595 19.5109 58.0804 17.4966 56.9154 15.7326L56.1432 16.2468ZM58.1962 21.2954H50.7817V22.2257H58.1962V21.2954ZM51.2449 21.7606C51.2449 20.6278 51.0064 19.6141 50.5135 18.7346L49.7061 19.1906C50.1091 19.9099 50.3184 20.7614 50.3184 21.7606H51.2449ZM50.519 18.7446C50.0396 17.837 49.3035 17.1315 48.3326 16.626L47.9064 17.4519C48.7268 17.8791 49.3179 18.456 49.7005 19.1806L50.519 18.7446ZM48.3358 16.6277C47.3709 16.1158 46.1791 15.8744 44.7854 15.8744V16.8046C46.0789 16.8046 47.1101 17.0295 47.9031 17.4502L48.3358 16.6277ZM44.7854 15.8744C43.4475 15.8744 42.298 16.0806 41.3568 16.5167L41.745 17.3613C42.5289 16.9981 43.5358 16.8046 44.7854 16.8046V15.8744ZM41.3636 16.5137C40.4348 16.9261 39.7108 17.5041 39.2218 18.2594L39.9986 18.7664C40.3722 18.1893 40.942 17.718 41.7383 17.3644L41.3636 16.5137ZM39.2248 18.2549C38.7404 18.9844 38.5001 19.8078 38.5001 20.7113H39.4265C39.4265 19.9826 39.6175 19.3405 39.9957 18.7709L39.2248 18.2549ZM38.5001 20.7113C38.5001 21.4067 38.6697 22.0482 39.0139 22.6244L39.8084 22.1458C39.5555 21.7226 39.4265 21.2483 39.4265 20.7113H38.5001ZM39.0198 22.6339C39.3752 23.1973 39.8876 23.7056 40.5382 24.1646L41.0708 23.4035C40.4939 22.9965 40.0774 22.5721 39.8025 22.1362L39.0198 22.6339ZM40.5382 24.1646C41.1849 24.6209 41.9699 25.0438 42.8871 25.4361L43.2502 24.5803C42.376 24.2064 41.6515 23.8132 41.0708 23.4035L40.5382 24.1646ZM42.8871 25.4361C43.8006 25.8267 44.8526 26.2067 46.0416 26.5766L46.3159 25.6881C45.1495 25.3252 44.1281 24.9557 43.2502 24.5803L42.8871 25.4361ZM46.0446 26.5775C47.999 27.1712 49.707 27.8366 51.1717 28.5719L51.5859 27.7399C50.0651 26.9763 48.3062 26.2926 46.3129 25.6872L46.0446 26.5775ZM51.1736 28.5728C52.6522 29.307 53.8742 30.1246 54.8475 31.0217L55.4738 30.3364C54.4236 29.3682 53.1243 28.5037 51.584 27.739L51.1736 28.5728ZM54.8475 31.0217C55.8152 31.9136 56.5388 32.9188 57.0252 34.0379L57.8743 33.6656C57.3323 32.4198 56.53 31.3098 55.4738 30.3364L54.8475 31.0217ZM57.0252 34.0379C57.5102 35.1529 57.758 36.4287 57.758 37.8738H58.6845C58.6845 36.3211 58.4177 34.9155 57.8743 33.6656L57.0252 34.0379ZM57.758 37.8738C57.758 39.3944 57.4634 40.7381 56.8848 41.9149L57.7159 42.3265C58.3653 41.0052 58.6845 39.5176 58.6845 37.8738H57.758ZM56.8848 41.9149C56.3053 43.095 55.4668 44.096 54.362 44.92L54.9147 45.6668C56.132 44.7587 57.0683 43.6446 57.7159 42.3265L56.8848 41.9149ZM54.362 44.92C53.253 45.7472 51.9212 46.3822 50.3587 46.8191L50.6075 47.7149C52.2626 47.2526 53.701 46.5716 54.9147 45.6668L54.362 44.92ZM50.3587 46.8191C48.7972 47.2553 47.0401 47.4763 45.084 47.4763V48.4065C47.1087 48.4065 48.951 48.1781 50.6075 47.7149L50.3587 46.8191ZM45.084 47.4763C43.3331 47.4763 41.6067 47.2484 39.9038 46.7925L39.665 47.6916C41.4454 48.1679 43.252 48.4065 45.084 48.4065V47.4763ZM39.9077 46.7935C38.2119 46.3234 36.674 45.6194 35.2911 44.683L34.7732 45.4542C36.2432 46.4497 37.8735 47.1944 39.6611 47.6902L39.9077 46.7935ZM35.2932 44.6844C33.9421 43.7587 32.8626 42.5794 32.0514 41.1419L31.2453 41.6006C32.126 43.161 33.3023 44.4466 34.7711 45.4528L35.2932 44.6844ZM32.0514 41.1419C31.2518 39.7251 30.8427 38.0335 30.8427 36.0501H29.9162C29.9162 38.1638 30.3531 40.0196 31.2453 41.6006L32.0514 41.1419ZM30.3795 36.5152H37.8685V35.585H30.3795V36.5152ZM37.4053 36.0501C37.4053 37.228 37.5861 38.2545 37.9681 39.1128L38.814 38.7333C38.4993 38.0261 38.3318 37.1372 38.3318 36.0501H37.4053ZM37.9681 39.1128C38.3455 39.9609 38.8814 40.6577 39.578 41.1914L40.1401 40.4519C39.576 40.0197 39.1333 39.4507 38.814 38.7333L37.9681 39.1128ZM39.5826 41.1949C40.2848 41.7192 41.1059 42.0932 42.0377 42.3226L42.2584 41.4192C41.4319 41.2156 40.727 40.8901 40.1354 40.4484L39.5826 41.1949ZM42.0396 42.3231C42.9757 42.5494 43.9913 42.6608 45.084 42.6608V41.7306C44.0535 41.7306 43.1118 41.6254 42.2565 41.4187L42.0396 42.3231ZM45.084 42.6608C46.4166 42.6608 47.5478 42.4728 48.4553 42.0718L48.0819 41.2203C47.331 41.5521 46.3388 41.7306 45.084 41.7306V42.6608ZM48.4521 42.0732C49.3665 41.6771 50.0715 41.1129 50.5292 40.3659L49.7403 39.8784C49.4017 40.4305 48.8625 40.8822 48.0852 41.219L48.4521 42.0732ZM50.5246 40.3732C50.9901 39.6443 51.2199 38.8234 51.2199 37.9238H50.2934C50.2934 38.6563 50.1091 39.301 49.745 39.8712L50.5246 40.3732ZM79.4939 11.0683H79.9572V10.6032H79.4939V11.0683ZM79.4939 47.4419V47.907H79.9572V47.4419H79.4939ZM72.0548 47.4419H71.5916V47.907H72.0548V47.4419ZM72.0548 11.0683V10.6032H71.5916V11.0683H72.0548ZM90.6408 11.0683H91.104V10.6032H90.6408V11.0683ZM90.6408 16.939V17.4041H91.104V16.939H90.6408ZM61.0822 16.939H60.6189V17.4041H61.0822V16.939ZM61.0822 11.0683V10.6032H60.6189V11.0683H61.0822ZM79.0307 11.0683V47.4419H79.9572V11.0683H79.0307ZM79.4939 46.9767H72.0548V47.907H79.4939V46.9767ZM72.5181 47.4419V11.0683H71.5916V47.4419H72.5181ZM72.0548 11.5334H79.4939V10.6032H72.0548V11.5334ZM90.1775 11.0683V16.939H91.104V11.0683H90.1775ZM90.6408 16.4739H61.0822V17.4041H90.6408V16.4739ZM61.5454 16.939V11.0683H60.6189V16.939H61.5454ZM61.0822 11.5334H90.6408V10.6032H61.0822V11.5334ZM176.678 42.0458L176.966 41.6812L176.66 41.4378L176.369 41.6994L176.678 42.0458ZM186.481 49.84L186.785 50.1916L187.207 49.8237L186.769 49.4753L186.481 49.84ZM181.779 53.9372L181.489 54.2995L181.791 54.5432L182.082 54.2884L181.779 53.9372ZM172.125 46.1428L171.816 45.7964L171.41 46.162L171.835 46.5052L172.125 46.1428ZM185.611 37.574L185.172 37.4239L185.171 37.427L185.611 37.574ZM182.451 43.1949L182.795 43.5065L182.796 43.5046L182.451 43.1949ZM160.183 43.1949L159.837 43.5046L159.839 43.5065L160.183 43.1949ZM156.973 37.574L156.535 37.7241L156.536 37.7271L156.973 37.574ZM156.973 20.9611L156.536 20.808L156.535 20.81L156.973 20.9611ZM177.525 11.7928L177.34 12.2195L177.342 12.2201L177.525 11.7928ZM185.611 20.9611L185.172 21.1112L185.173 21.1122L185.611 20.9611ZM178.644 23.2594L178.194 23.3674L178.195 23.3722L178.644 23.2594ZM177.101 19.5621L176.716 19.8201L176.719 19.8246L177.101 19.5621ZM174.638 17.3138L174.423 17.7255L174.428 17.7284L174.638 17.3138ZM167.92 17.3138L168.13 17.7284L168.136 17.7255L167.92 17.3138ZM163.939 35.2258L163.489 35.3325L163.489 35.3337L163.939 35.2258ZM165.457 38.948L165.07 39.2031L165.072 39.2068L165.075 39.2105L165.457 38.948ZM167.945 41.2214L167.73 41.6331L167.733 41.6346L167.945 41.2214ZM174.663 41.2214L174.448 40.8096L174.445 40.8112L174.663 41.2214ZM177.126 38.948L176.742 38.6886L176.741 38.69L177.126 38.948ZM178.669 35.2258L179.12 35.3337L179.12 35.3325L178.669 35.2258ZM176.391 42.4104L186.194 50.2046L186.769 49.4753L176.966 41.6812L176.391 42.4104ZM186.178 49.4888L181.476 53.586L182.082 54.2884L186.785 50.1916L186.178 49.4888ZM182.07 53.5749L172.416 45.7803L171.835 46.5052L181.489 54.2995L182.07 53.5749ZM172.435 46.4892L176.988 42.3921L176.369 41.6994L171.816 45.7964L172.435 46.4892ZM186.267 28.4057V30.1294H187.194V28.4057H186.267ZM186.267 30.1294C186.267 32.8525 185.9 35.2821 185.172 37.4239L186.049 37.7241C186.815 35.4692 187.194 32.9357 187.194 30.1294H186.267ZM185.171 37.427C184.459 39.5723 183.436 41.3888 182.105 42.8852L182.796 43.5046C184.22 41.9033 185.303 39.9726 186.05 37.7211L185.171 37.427ZM182.107 42.8834C180.774 44.3665 179.203 45.5012 177.39 46.2906L177.759 47.1442C179.694 46.3014 181.374 45.0878 182.795 43.5065L182.107 42.8834ZM177.39 46.2906C175.581 47.0786 173.563 47.4763 171.329 47.4763V48.4065C173.674 48.4065 175.82 47.9884 177.759 47.1442L177.39 46.2906ZM171.329 47.4763C169.113 47.4763 167.095 47.0786 165.267 46.2901L164.901 47.1446C166.855 47.9884 169 48.4065 171.329 48.4065V47.4763ZM165.267 46.2901C163.437 45.5004 161.859 44.3658 160.527 42.8834L159.839 43.5065C161.26 45.0886 162.949 46.3022 164.901 47.1446L165.267 46.2901ZM160.528 42.8852C159.197 41.3872 158.156 39.5686 157.411 37.421L156.536 37.7271C157.316 39.9763 158.415 41.9049 159.837 43.5046L160.528 42.8852ZM157.412 37.4239C156.684 35.2821 156.316 32.8525 156.316 30.1294H155.39C155.39 32.9357 155.769 35.4692 156.535 37.7241L157.412 37.4239ZM156.316 30.1294V28.4057H155.39V30.1294H156.316ZM156.316 28.4057C156.316 25.6656 156.684 23.2365 157.411 21.1122L156.535 20.81C155.769 23.0492 155.39 25.5832 155.39 28.4057H156.316ZM157.411 21.1142C158.156 18.9654 159.189 17.1461 160.505 15.6478L159.81 15.0326C158.406 16.632 157.316 18.56 156.536 20.808L157.411 21.1142ZM160.505 15.6478C161.82 14.1506 163.389 13.009 165.217 12.2201L164.852 11.3655C162.898 12.2087 161.216 13.432 159.81 15.0326L160.505 15.6478ZM165.217 12.2201C167.044 11.4314 169.063 11.0338 171.279 11.0338V10.1036C168.951 10.1036 166.806 10.522 164.852 11.3655L165.217 12.2201ZM171.279 11.0338C173.513 11.0338 175.53 11.4317 177.34 12.2195L177.709 11.366C175.77 10.5218 173.624 10.1036 171.279 10.1036V11.0338ZM177.342 12.2201C179.17 13.0093 180.748 14.1514 182.081 15.6499L182.772 15.0305C181.35 13.4312 179.661 12.2085 177.707 11.3655L177.342 12.2201ZM182.081 15.6499C183.411 17.1471 184.444 18.9647 185.172 21.1112L186.049 20.811C185.285 18.5607 184.194 16.631 182.772 15.0305L182.081 15.6499ZM185.173 21.1122C185.9 23.2365 186.267 25.6656 186.267 28.4057H187.194C187.194 25.5832 186.815 23.0492 186.049 20.81L185.173 21.1122ZM179.655 30.1294V28.3557H178.728V30.1294H179.655ZM179.655 28.3557C179.655 26.3958 179.47 24.6577 179.094 23.1466L178.195 23.3722C178.548 24.7924 178.728 26.4519 178.728 28.3557H179.655ZM179.095 23.1515C178.737 21.6437 178.203 20.3558 177.484 19.2997L176.719 19.8246C177.36 20.767 177.855 21.944 178.194 23.3674L179.095 23.1515ZM177.487 19.3041C176.784 18.2445 175.904 17.4382 174.848 16.8992L174.428 17.7284C175.33 18.1886 176.093 18.8812 176.716 19.8201L177.487 19.3041ZM174.854 16.902C173.8 16.346 172.605 16.0742 171.279 16.0742V17.0045C172.475 17.0045 173.52 17.2489 174.423 17.7255L174.854 16.902ZM171.279 16.0742C169.955 16.0742 168.759 16.346 167.705 16.902L168.136 17.7255C169.039 17.2489 170.083 17.0045 171.279 17.0045V16.0742ZM167.711 16.8992C166.655 17.4382 165.775 18.2445 165.072 19.3041L165.843 19.8201C166.466 18.8812 167.229 18.1886 168.13 17.7284L167.711 16.8992ZM165.072 19.3041C164.372 20.3592 163.847 21.6454 163.489 23.1515L164.39 23.3674C164.729 21.9422 165.216 20.7637 165.843 19.8201L165.072 19.3041ZM163.489 23.1515C163.13 24.6607 162.954 26.3971 162.954 28.3557H163.88C163.88 26.4505 164.052 24.7893 164.39 23.3674L163.489 23.1515ZM162.954 28.3557V30.1294H163.88V28.3557H162.954ZM162.954 30.1294C162.954 32.0719 163.131 33.8077 163.489 35.3325L164.391 35.1189C164.052 33.6793 163.88 32.0175 163.88 30.1294H162.954ZM163.489 35.3337C163.847 36.8395 164.371 38.1328 165.07 39.2031L165.845 38.693C165.217 37.7314 164.729 36.5432 164.39 35.1178L163.489 35.3337ZM165.075 39.2105C165.794 40.2666 166.679 41.0784 167.73 41.6331L168.161 40.8096C167.255 40.3318 166.481 39.6279 165.84 38.6856L165.075 39.2105ZM167.733 41.6346C168.802 42.1891 170.004 42.4609 171.329 42.4609V41.5307C170.133 41.5307 169.079 41.2863 168.158 40.8082L167.733 41.6346ZM171.329 42.4609C172.654 42.4609 173.842 42.1892 174.882 41.6316L174.445 40.8112C173.56 41.2862 172.525 41.5307 171.329 41.5307V42.4609ZM174.879 41.6331C175.932 41.0777 176.809 40.2646 177.512 39.206L176.741 38.69C176.117 39.63 175.352 40.3325 174.448 40.8096L174.879 41.6331ZM177.511 39.2075C178.228 38.1362 178.761 36.8413 179.12 35.3337L178.219 35.1178C177.88 36.5414 177.385 37.728 176.742 38.6886L177.511 39.2075ZM179.12 35.3325C179.478 33.8077 179.655 32.0719 179.655 30.1294H178.728C178.728 32.0175 178.556 33.6793 178.218 35.1189L179.12 35.3325ZM212.134 11.0683V10.6032H211.67V11.0683H212.134ZM219.573 11.0683H220.036V10.6032H219.573V11.0683ZM217.782 42.1707L217.389 41.9239L217.388 41.9264L217.782 42.1707ZM212.88 46.4926L212.687 46.07L212.685 46.0706L212.88 46.4926ZM198.499 46.4926L198.305 46.9149L198.306 46.9158L198.499 46.4926ZM193.573 42.1707L193.178 42.415L193.18 42.4175L193.573 42.1707ZM191.806 11.0683V10.6032H191.343V11.0683H191.806ZM199.27 11.0683H199.734V10.6032H199.27V11.0683ZM202.256 41.3712L202.049 41.7873L202.052 41.7887L202.256 41.3712ZM209.173 41.3712L208.966 40.9553L208.963 40.9567L209.173 41.3712ZM211.362 39.0979L210.948 38.8899L210.945 38.8953L211.362 39.0979ZM212.134 11.5334H219.573V10.6032H212.134V11.5334ZM219.11 11.0683V35.1008H220.036V11.0683H219.11ZM219.11 35.1008C219.11 37.8323 218.527 40.0984 217.389 41.9239L218.174 42.4175C219.424 40.4124 220.036 37.9653 220.036 35.1008H219.11ZM217.388 41.9264C216.259 43.7616 214.696 45.1413 212.687 46.07L213.074 46.9149C215.244 45.9119 216.949 44.4104 218.176 42.415L217.388 41.9264ZM212.685 46.0706C210.683 47.0033 208.363 47.4763 205.714 47.4763V48.4065C208.473 48.4065 210.93 47.9135 213.075 46.9144L212.685 46.0706ZM205.714 47.4763C203.066 47.4763 200.728 47.0032 198.691 46.0695L198.306 46.9158C200.483 47.9135 202.955 48.4065 205.714 48.4065V47.4763ZM198.693 46.07C196.683 45.1411 195.111 43.7606 193.965 41.9239L193.18 42.4175C194.423 44.4113 196.135 45.9121 198.305 46.9149L198.693 46.07ZM193.967 41.9264C192.844 40.1005 192.27 37.8334 192.27 35.1008H191.343C191.343 37.9642 191.946 40.4104 193.178 42.415L193.967 41.9264ZM192.27 35.1008V11.0683H191.343V35.1008H192.27ZM191.806 11.5334H199.27V10.6032H191.806V11.5334ZM198.807 11.0683V35.1008H199.734V11.0683H198.807ZM198.807 35.1008C198.807 36.7772 199.07 38.1877 199.628 39.3059L200.456 38.8899C199.984 37.943 199.734 36.6887 199.734 35.1008H198.807ZM199.628 39.3059C200.183 40.4219 200.991 41.2561 202.049 41.7873L202.463 40.9553C201.597 40.5205 200.929 39.8391 200.456 38.8899L199.628 39.3059ZM202.052 41.7887C203.106 42.3091 204.332 42.5609 205.714 42.5609V41.6306C204.443 41.6306 203.363 41.3994 202.46 40.9539L202.052 41.7887ZM205.714 42.5609C207.128 42.5609 208.357 42.3101 209.383 41.7858L208.963 40.9567C208.098 41.3984 207.022 41.6306 205.714 41.6306V42.5609ZM209.38 41.7873C210.439 41.2554 211.24 40.4194 211.78 39.3005L210.945 38.8953C210.489 39.8416 209.83 40.5212 208.966 40.9553L209.38 41.7873ZM211.777 39.3059C212.334 38.1877 212.597 36.7772 212.597 35.1008H211.67C211.67 36.6887 211.42 37.943 210.948 38.8899L211.777 39.3059ZM212.597 35.1008V11.0683H211.67V35.1008H212.597ZM250.027 41.5961H250.49V41.131H250.027V41.5961ZM250.027 47.4419V47.907H250.49V47.4419H250.027ZM230.744 47.4419H230.281V47.907H230.744V47.4419ZM230.744 41.5961V41.131H230.281V41.5961H230.744ZM233.183 11.0683H233.646V10.6032H233.183V11.0683ZM233.183 47.4419V47.907H233.646V47.4419H233.183ZM225.719 47.4419H225.256V47.907H225.719V47.4419ZM225.719 11.0683V10.6032H225.256V11.0683H225.719ZM247.514 25.8826H247.977V25.4174H247.514V25.8826ZM247.514 31.5784V32.0435H247.977V31.5784H247.514ZM230.744 31.5784H230.281V32.0435H230.744V31.5784ZM230.744 25.8826V25.4174H230.281V25.8826H230.744ZM250.003 11.0683H250.466V10.6032H250.003V11.0683ZM250.003 16.939V17.4041H250.466V16.939H250.003ZM230.744 16.939H230.281V17.4041H230.744V16.939ZM230.744 11.0683V10.6032H230.281V11.0683H230.744ZM249.564 41.5961V47.4419H250.49V41.5961H249.564ZM250.027 46.9767H230.744V47.907H250.027V46.9767ZM231.208 47.4419V41.5961H230.281V47.4419H231.208ZM230.744 42.0612H250.027V41.131H230.744V42.0612ZM232.72 11.0683V47.4419H233.646V11.0683H232.72ZM233.183 46.9767H225.719V47.907H233.183V46.9767ZM226.182 47.4419V11.0683H225.256V47.4419H226.182ZM225.719 11.5334H233.183V10.6032H225.719V11.5334ZM247.051 25.8826V31.5784H247.977V25.8826H247.051ZM247.514 31.1133H230.744V32.0435H247.514V31.1133ZM231.208 31.5784V25.8826H230.281V31.5784H231.208ZM230.744 26.3477H247.514V25.4174H230.744V26.3477ZM249.539 11.0683V16.939H250.466V11.0683H249.539ZM250.003 16.4739H230.744V17.4041H250.003V16.4739ZM231.208 16.939V11.0683H230.281V16.939H231.208ZM230.744 11.5334H250.003V10.6032H230.744V11.5334Z" fill="#F5F3F5"/>
</g>
<path d="M149.625 25.8098C149.637 30.4931 148.122 35.0519 145.311 38.7915C145.156 38.9981 144.962 39.1721 144.74 39.3035C144.518 39.435 144.273 39.5213 144.018 39.5576C143.763 39.5939 143.503 39.5794 143.253 39.5151C143.004 39.4507 142.769 39.3376 142.563 39.1823C142.357 39.027 142.184 38.8326 142.053 38.6101C141.921 38.3876 141.836 38.1413 141.799 37.8855C141.763 37.6296 141.777 37.3691 141.842 37.1188C141.906 36.8684 142.019 36.6333 142.173 36.4267C144.475 33.3693 145.714 29.6404 145.703 25.8098C145.703 21.1157 143.844 16.6139 140.534 13.2947C137.224 9.97552 132.735 8.11082 128.055 8.11082C123.374 8.11082 118.886 9.97552 115.576 13.2947C112.266 16.6139 110.407 21.1157 110.407 25.8098C110.407 26.3313 110.2 26.8315 109.833 27.2004C109.465 27.5691 108.966 27.7763 108.446 27.7763C107.926 27.7763 107.427 27.5691 107.059 27.2004C106.691 26.8315 106.485 26.3313 106.485 25.8098C106.484 23.8252 106.755 21.85 107.291 19.9396C107.024 19.9101 106.754 19.9101 106.485 19.9101C103.364 19.9101 100.372 21.1532 98.1656 23.366C95.9592 25.5789 94.7196 28.5801 94.7196 31.7094C94.7196 34.8388 95.9592 37.84 98.1656 40.0528C100.372 42.2656 103.364 43.5087 106.485 43.5087H112.368C112.888 43.5087 113.387 43.7159 113.754 44.0847C114.122 44.4535 114.329 44.9537 114.329 45.4753C114.329 45.9969 114.122 46.4971 113.754 46.866C113.387 47.2349 112.888 47.4418 112.368 47.4418H106.485C104.328 47.4423 102.195 46.9967 100.218 46.1333C98.2407 45.2697 96.4623 44.0066 94.9934 42.4228C93.5249 40.839 92.3979 38.9685 91.6826 36.9282C90.9669 34.8879 90.6788 32.7216 90.8358 30.5645C90.9929 28.4075 91.5914 26.3061 92.5947 24.3915C93.5976 22.477 94.9836 20.7904 96.6661 19.4371C98.3481 18.0839 100.29 17.0931 102.372 16.5264C104.453 15.9598 106.628 15.8298 108.762 16.1442C110.935 11.7862 114.511 8.29143 118.911 6.22594C123.311 4.16047 128.278 3.64525 133.006 4.76375C137.735 5.88226 141.949 8.56896 144.965 12.3887C147.981 16.2084 149.623 20.9374 149.625 25.8098ZM127.481 24.4184C127.299 24.2356 127.083 24.0905 126.845 23.9916C126.607 23.8926 126.352 23.8417 126.094 23.8417C125.837 23.8417 125.581 23.8926 125.343 23.9916C125.105 24.0905 124.889 24.2356 124.707 24.4184L116.863 32.2846C116.681 32.4673 116.537 32.6843 116.438 32.923C116.339 33.1617 116.288 33.4176 116.288 33.676C116.288 33.9344 116.339 34.1902 116.438 34.429C116.537 34.6677 116.681 34.8846 116.863 35.0673C117.231 35.4363 117.73 35.6436 118.251 35.6436C118.508 35.6436 118.763 35.5927 119.001 35.4938C119.239 35.395 119.455 35.25 119.638 35.0673L124.133 30.5565V45.4753C124.133 45.9969 124.34 46.4971 124.708 46.866C125.075 47.2349 125.574 47.4418 126.094 47.4418C126.614 47.4418 127.113 47.2349 127.481 46.866C127.848 46.4971 128.055 45.9969 128.055 45.4753V30.5565L132.55 35.0673C132.733 35.25 132.949 35.395 133.187 35.4938C133.425 35.5927 133.68 35.6436 133.938 35.6436C134.196 35.6436 134.45 35.5927 134.688 35.4938C134.927 35.395 135.143 35.25 135.325 35.0673C135.507 34.8846 135.652 34.6677 135.75 34.429C135.849 34.1902 135.9 33.9344 135.9 33.676C135.9 33.4176 135.849 33.1617 135.75 32.923C135.652 32.6843 135.507 32.4673 135.325 32.2846L127.481 24.4184Z" fill="#F5F3F5"/>
</g>
<defs>
<filter id="filter0_d_8_3" x="-1.22876" y="10.1036" width="255.719" height="52.4397" filterUnits="userSpaceOnUse" color-interpolation-filters="sRGB">
<feFlood flood-opacity="0" result="BackgroundImageFix"/>
<feColorMatrix in="SourceAlpha" type="matrix" values="0 0 0 0 0 0 0 0 0 0 0 0 0 0 0 0 0 0 127 0" result="hardAlpha"/>
<feOffset dy="4"/>
<feGaussianBlur stdDeviation="2"/>
<feComposite in2="hardAlpha" operator="out"/>
<feColorMatrix type="matrix" values="0 0 0 0 0 0 0 0 0 0 0 0 0 0 0 0 0 0 0.25 0"/>
<feBlend mode="normal" in2="BackgroundImageFix" result="effect1_dropShadow_8_3"/>
<feBlend mode="normal" in="SourceGraphic" in2="effect1_dropShadow_8_3" result="shape"/>
</filter>
<clipPath id="clip0_8_3">
<rect width="252" height="60" fill="white"/>
</clipPath>
</defs>
</svg>
