<svg width="683" height="618" viewBox="0 0 683 618" fill="none" xmlns="http://www.w3.org/2000/svg">
<path d="M341.5 617.684C530.105 617.684 683 608.757 683 597.746C683 586.734 530.105 577.808 341.5 577.808C152.895 577.808 0 586.734 0 597.746C0 608.757 152.895 617.684 341.5 617.684Z" fill="#F5F5F5"/>
<path d="M531.475 58.2748H482.457C478.051 58.2748 474.479 61.847 474.479 66.2535V110.709C474.479 115.115 478.051 118.688 482.457 118.688H531.475C535.881 118.688 539.453 115.115 539.453 110.709V66.2535C539.453 61.847 535.881 58.2748 531.475 58.2748Z" fill="#407BFF"/>
<path d="M500.617 111.008C500.617 111.008 504.72 130.858 532.69 141.866C532.69 141.866 515.588 130.929 516.644 111.008H500.617Z" fill="#407BFF"/>
<path d="M492.902 86.7728L502.184 99.6656L521.03 77.3146" stroke="white" stroke-width="3" stroke-linecap="round" stroke-linejoin="round"/>
<path d="M592.539 127.794C601.152 133.976 608.937 144.544 603.107 174.134C597.277 203.724 595.798 210.769 595.798 210.769L539.436 204.428C539.436 204.428 536.794 178.237 541.197 153.597C547.15 121.77 567.317 109.67 592.539 127.794Z" fill="#263238"/>
<path d="M536.124 291.296C536.124 291.296 517.032 393.011 511.942 434.807C505.284 489.302 478.072 569.019 478.072 569.019L488.957 571.837C488.957 571.837 527.318 504.079 534.751 443.138C565.221 380.841 567.687 304.118 567.687 304.118L536.124 291.296Z" fill="#EEC1BB"/>
<path d="M457.746 593.677C459.505 592.868 461.398 592.39 463.33 592.268C463.33 592.268 470.023 588.323 476.645 573.035H484.113C485.372 573.052 486.596 573.455 487.619 574.188C488.642 574.922 489.417 575.952 489.837 577.138C489.96 577.472 490.031 577.823 490.049 578.178C489.966 579.949 489.771 581.714 489.468 583.462C488.375 589.415 486.922 595.297 485.117 601.075L483.849 600.74L486.139 589.626C486.914 585.839 482.933 589.485 481.101 593.307C479.27 597.129 476.504 600.846 468.314 599.084C458.662 596.795 454.805 595.403 457.746 593.677Z" fill="#263238"/>
<path d="M490.119 577.279C491.528 573.669 493.325 567.205 493.325 567.205L477.35 564.986C477.35 564.986 477.35 572.841 474.391 577.984C482.739 577.949 490.119 577.279 490.119 577.279Z" fill="#263238"/>
<path d="M555.939 289.675C555.939 289.675 558.317 393.152 561.963 435.071C566.736 489.778 556.591 573.405 556.591 573.405L567.828 573.898C567.828 573.898 591.342 499.676 586.058 438.488C602.984 371.242 589.58 295.681 589.58 295.681L555.939 289.675Z" fill="#EEC1BB"/>
<path d="M539.119 597.094C540.782 596.094 542.615 595.407 544.526 595.069C544.526 595.069 550.743 590.436 555.693 574.514L563.09 573.669C564.353 573.55 565.622 573.825 566.722 574.455C567.823 575.086 568.701 576.042 569.237 577.191C569.395 577.507 569.502 577.846 569.554 578.195C569.669 579.996 569.669 581.802 569.554 583.602C569.101 589.611 568.283 595.587 567.106 601.497L565.82 601.321L566.895 590.014C567.247 586.174 563.707 590.225 562.28 594.223C560.853 598.221 558.458 602.325 550.074 601.268C540.316 600.088 536.318 599.084 539.119 597.094Z" fill="#263238"/>
<path d="M569.466 577.279C570.47 573.545 571.562 566.923 571.562 566.923L555.446 566.447C555.446 566.447 556.291 574.25 553.914 579.692C562.192 578.724 569.466 577.279 569.466 577.279Z" fill="#263238"/>
<path d="M532.056 274.317L511.114 419.132C511.114 419.132 579.312 429.699 606.612 423.517C606.612 423.517 613.323 339.908 584.825 279.09L532.056 274.317Z" fill="#263238"/>
<path d="M469.019 223.116L450.789 205.115C450.789 205.115 450.173 200.289 448.394 198.95C446.615 197.612 434.145 193.068 432.542 194.072C430.939 195.076 428.878 205.185 431.027 207.035C433.176 208.884 444.537 211.244 445.699 211.051L465.478 234.494L469.019 223.116Z" fill="#EEC1BB"/>
<path d="M534.257 190.302C526.402 194.477 498.503 233.472 494.399 235.392C490.295 237.312 458.891 211.861 458.891 211.861L453.607 220.896C453.607 220.896 479.358 257.391 493.924 255.629C508.49 253.868 536.371 223.045 536.371 223.045L534.257 190.302Z" fill="#407BFF"/>
<path opacity="0.1" d="M534.257 190.302C526.402 194.477 498.503 233.472 494.399 235.392C490.295 237.312 458.891 211.861 458.891 211.861L453.607 220.896C453.607 220.896 479.358 257.391 493.924 255.629C508.49 253.868 536.371 223.045 536.371 223.045L534.257 190.302Z" fill="white"/>
<path d="M460.617 212.83L458.433 210.769L452.709 220.456L454.77 224.419L460.617 212.83Z" fill="#407BFF"/>
<path opacity="0.2" d="M525.169 234.335C531.686 228.118 536.371 222.957 536.371 222.957L535.878 215.207L533.482 207.687C530.104 211.165 527.59 215.39 526.146 220.019C524.702 224.648 524.367 229.552 525.169 234.335Z" fill="black"/>
<path d="M531.616 272.837C529.414 234.089 530.4 212.742 531.404 202.086C532.514 190.725 534.258 190.302 534.258 190.302C534.258 190.302 546.587 189.105 557.278 189.193C565.549 189.473 573.789 190.344 581.936 191.8C589.691 193.086 597.343 194.929 604.833 197.312C603.583 200.835 602.455 204.358 601.399 207.458C600.007 211.667 598.757 215.56 597.612 219.206C595.498 226.004 593.843 231.887 592.539 237.153C589.172 250.414 587.206 263.992 586.674 277.663C586.674 277.663 600.219 313.066 602.861 339.045L557.947 343.888L551.783 317.909L545.618 344.769L520.519 335.963L531.616 272.837Z" fill="#407BFF"/>
<path opacity="0.1" d="M531.616 272.837C529.414 234.089 530.4 212.742 531.404 202.086C532.514 190.725 534.258 190.302 534.258 190.302C534.258 190.302 546.587 189.105 557.278 189.193C565.549 189.473 573.789 190.344 581.936 191.8C589.691 193.086 597.343 194.929 604.833 197.312C603.583 200.835 602.455 204.358 601.399 207.458C600.007 211.667 598.757 215.56 597.612 219.206C595.498 226.004 593.843 231.887 592.539 237.153C589.172 250.414 587.206 263.992 586.674 277.663C586.674 277.663 600.219 313.066 602.861 339.045L557.947 343.888L551.783 317.909L545.618 344.769L520.519 335.963L531.616 272.837Z" fill="white"/>
<path opacity="0.2" d="M590.355 246.647C590.954 243.688 591.658 240.535 592.521 237.153C593.067 235.004 593.666 232.75 594.283 230.355C592.521 224.348 590.76 229.051 590.76 229.051C589.668 234.855 589.531 240.799 590.355 246.647Z" fill="black"/>
<path d="M557.894 191.553C558.437 191.278 558.996 191.037 559.567 190.831C560.836 189.827 562.386 187.414 562.315 181.549C562.258 179.223 562.04 176.905 561.663 174.609L577.991 171.562C577.991 171.562 572.425 182.553 577.057 190.725C578.66 191.43 579.611 192.486 579.435 193.772C578.22 203.195 557.929 212.319 557.929 212.319C557.929 212.319 548.049 196.96 557.894 191.553Z" fill="#EEC1BB"/>
<path opacity="0.2" d="M561.663 174.609C562.032 176.888 562.244 179.189 562.297 181.496C573.323 181.496 577.991 171.562 577.991 171.562L561.663 174.609Z" fill="black"/>
<path d="M570.699 129.009C556.503 128.234 551.518 135.579 549.687 150.145C547.379 168.357 550.726 181.566 568.691 178.643C593.085 174.609 594.283 130.295 570.699 129.009Z" fill="#EEC1BB"/>
<path d="M558.898 149.951C557.646 152.008 556.149 153.906 554.442 155.605C554.831 156.207 555.379 156.691 556.026 157.002C556.672 157.312 557.392 157.438 558.106 157.366L558.898 149.951Z" fill="#D4827D"/>
<path d="M567.652 149.176C567.652 150.338 568.11 151.342 568.885 151.395C569.66 151.448 570.364 150.567 570.47 149.405C570.576 148.242 569.994 147.238 569.219 147.186C568.444 147.133 567.74 148.013 567.652 149.176Z" fill="#263238"/>
<path d="M569.537 147.256L567.088 146.076C567.088 146.076 568.18 148.295 569.537 147.256Z" fill="#263238"/>
<path d="M553.192 147.802C553.103 148.965 553.65 149.951 554.425 150.021C555.199 150.092 555.922 149.193 556.01 148.013C556.098 146.833 555.534 145.865 554.759 145.794C553.984 145.724 553.28 146.64 553.192 147.802Z" fill="#263238"/>
<path d="M555.076 145.882L552.628 144.685C552.628 144.685 553.72 146.921 555.076 145.882Z" fill="#263238"/>
<path d="M568.339 139.383C569.466 139.307 570.596 139.491 571.64 139.922C572.685 140.353 573.616 141.018 574.363 141.866" stroke="#263238" stroke-width="0.686238" stroke-linecap="round" stroke-linejoin="round"/>
<path d="M558.141 138.221C557.185 137.919 556.173 137.839 555.182 137.985C554.19 138.131 553.245 138.501 552.417 139.066" stroke="#263238" stroke-width="0.686238" stroke-linecap="round" stroke-linejoin="round"/>
<path d="M584.913 153.79C584.913 153.79 578.907 141.761 580.404 132.813C580.404 132.813 552.91 119.78 549.951 148.242C549.951 148.242 548.595 122.739 573.024 123.584C597.453 124.429 595.393 160.061 582.218 170.012C582.218 169.942 588.612 161.311 584.913 153.79Z" fill="#263238"/>
<path d="M582.429 156.661C582.665 155.027 583.539 153.554 584.859 152.563C586.18 151.572 587.84 151.146 589.474 151.378C593.842 152.1 595.445 161.258 584.384 162.826C582.799 163.002 581.971 161.417 582.429 156.661Z" fill="#EEC1BB"/>
<path d="M569.184 160.642C568.11 161.702 566.836 162.539 565.436 163.105C564.037 163.67 562.539 163.952 561.03 163.936" stroke="#263238" stroke-width="0.686238" stroke-linecap="round" stroke-linejoin="round"/>
<path d="M580.404 132.813C580.404 132.813 549.722 124.835 547.15 153.597" stroke="#263238" stroke-width="0.686238" stroke-linecap="round" stroke-linejoin="round"/>
<path d="M553.033 198.545C553.033 198.545 550.691 221.865 554.53 243.089C554.53 243.089 563.583 210.293 576.3 199.144L561.681 201.24L553.033 198.545Z" fill="#407BFF"/>
<path opacity="0.5" d="M553.033 198.545C553.033 198.545 550.691 221.865 554.53 243.089C554.53 243.089 563.583 210.293 576.3 199.144L561.681 201.24L553.033 198.545Z" fill="white"/>
<path d="M576.511 188.171L561.663 199.144V187.484C561.663 187.484 549.669 191.835 550.514 205.097L560.36 200.571V205.097L562.667 200.729L570.452 209.624C570.452 209.624 579.981 198.51 581.02 195.164C582.059 191.817 576.511 188.171 576.511 188.171Z" fill="#407BFF"/>
<path opacity="0.7" d="M576.511 188.171L561.663 199.144V187.484C561.663 187.484 549.669 191.835 550.514 205.097L560.36 200.571V205.097L562.667 200.729L570.452 209.624C570.452 209.624 579.981 198.51 581.02 195.164C582.059 191.817 576.511 188.171 576.511 188.171Z" fill="white"/>
<path d="M592.011 291.067L578.378 226.022C578.237 225.341 577.866 224.73 577.327 224.29C576.788 223.851 576.114 223.61 575.419 223.609H533.483C533.174 223.609 532.869 223.677 532.589 223.808C532.31 223.939 532.062 224.129 531.864 224.366C531.666 224.603 531.522 224.88 531.443 225.178C531.363 225.476 531.35 225.788 531.404 226.092L542.765 289.781C542.883 290.468 543.235 291.092 543.762 291.548C544.288 292.004 544.957 292.264 545.653 292.282L589.985 293.603C590.295 293.597 590.599 293.522 590.877 293.385C591.154 293.247 591.398 293.051 591.592 292.809C591.785 292.567 591.923 292.286 591.995 291.985C592.067 291.684 592.073 291.37 592.011 291.067Z" fill="#263238"/>
<path opacity="0.1" d="M592.011 291.067L578.378 226.022C578.237 225.341 577.866 224.73 577.327 224.29C576.788 223.851 576.114 223.61 575.419 223.609H533.483C533.174 223.609 532.869 223.677 532.589 223.808C532.31 223.939 532.062 224.129 531.864 224.366C531.666 224.603 531.522 224.88 531.443 225.178C531.363 225.476 531.35 225.788 531.404 226.092L542.765 289.781C542.883 290.468 543.235 291.092 543.762 291.548C544.288 292.004 544.957 292.264 545.653 292.282L589.985 293.603C590.295 293.597 590.599 293.522 590.877 293.385C591.154 293.247 591.398 293.051 591.592 292.809C591.785 292.567 591.923 292.286 591.995 291.985C592.067 291.684 592.073 291.37 592.011 291.067Z" fill="white"/>
<path d="M610.135 270.002L588.453 256.334C588.453 256.334 586.797 251.772 584.789 250.839C582.781 249.905 569.607 248.161 568.321 249.482C567.035 250.803 567.141 261.107 569.642 262.463C572.143 263.819 583.733 263.661 584.825 263.221L609.113 281.82L610.135 270.002Z" fill="#EEC1BB"/>
<path d="M604.833 197.312C604.833 197.312 590.743 217.885 592.733 235.498L611.526 266.602L598.898 260.156L593.173 270.935C593.173 270.935 607.704 293.321 626.198 288.037C644.692 282.753 604.833 197.312 604.833 197.312Z" fill="#407BFF"/>
<path opacity="0.1" d="M604.833 197.312C604.833 197.312 590.743 217.885 592.733 235.498L611.526 266.602L598.898 260.156L593.173 270.935C593.173 270.935 607.704 293.321 626.198 288.037C644.692 282.753 604.833 197.312 604.833 197.312Z" fill="white"/>
<path d="M600.219 259.557L593.032 272.925L591.412 269.103L597.136 258.236L600.219 259.557Z" fill="#407BFF"/>
<path d="M573.993 223.609C572.337 223.609 572.337 266.937 572.337 266.937L534.469 265.845C534.469 265.845 530.206 229.21 534.469 223.574L573.993 223.609Z" fill="white"/>
<path opacity="0.1" d="M573.993 223.609C572.337 223.609 572.337 266.937 572.337 266.937L534.469 265.845C534.469 265.845 530.206 229.21 534.469 223.574L573.993 223.609Z" fill="black"/>
<path d="M417.588 189.281L453.396 204.34C453.589 204.424 453.764 204.546 453.91 204.698C454.057 204.849 454.171 205.029 454.248 205.225C454.325 205.421 454.363 205.631 454.358 205.842C454.354 206.053 454.308 206.261 454.224 206.454C454.057 206.834 453.747 207.133 453.361 207.285C452.974 207.437 452.544 207.429 452.163 207.264L416.127 191.993L415.792 191.817L411.6 188.7L417.113 189.175C417.276 189.185 417.437 189.221 417.588 189.281Z" fill="#263238"/>
<path d="M298.788 263.502L264.003 266.602L250.053 258.729C250.053 258.729 205.316 233.807 193.691 225.934C190.168 223.521 186.875 218.272 184.039 212.107C181.66 206.821 179.613 201.392 177.91 195.851C177.117 193.367 176.413 190.989 175.814 188.805C174.475 184.103 173.647 180.58 173.418 179.629C173.429 179.553 173.429 179.476 173.418 179.4H173.507L184.532 175.877L193.744 172.954C193.744 172.954 194.167 175.138 194.889 178.466L195.523 181.408C195.717 182.253 195.91 183.169 196.122 184.085C198.447 194.336 202.022 208.321 204.611 210.61C208.786 214.291 261.272 250.064 263.139 250.997C265.006 251.931 281.721 250.997 281.721 250.997L298.788 263.502Z" fill="#E4897B"/>
<path d="M173.137 130.013C189.164 129.766 199.362 179.435 199.362 179.435L178.227 190.003C172.223 179.608 169.092 167.803 169.156 155.798C169.649 136.741 173.137 130.013 173.137 130.013Z" fill="#407BFF"/>
<path opacity="0.5" d="M173.137 130.013C189.164 129.766 199.362 179.435 199.362 179.435L178.227 190.003C172.223 179.608 169.092 167.803 169.156 155.798C169.649 136.741 173.137 130.013 173.137 130.013Z" fill="white"/>
<path d="M201.705 180.404L195.998 184.103L188.548 188.929L177.839 195.851L175.919 197.101L173.594 190.038L175.743 188.876L177.152 188.101L186.945 182.764L194.765 178.484L198.676 176.353L199.362 175.983L201.705 180.404Z" fill="#407BFF"/>
<path opacity="0.2" d="M189.499 197.101C189.532 202.608 187.567 207.939 183.969 212.107C181.589 206.821 179.542 201.392 177.839 195.851L175.919 197.101L173.594 190.056L175.743 188.893C174.405 184.191 173.577 180.668 173.348 179.717V179.435L175.884 160.061C179.212 165.062 182.055 170.37 184.374 175.913C185.29 178.079 186.135 180.386 186.91 182.782C187.18 183.604 187.427 184.449 187.65 185.318C187.984 186.516 188.266 187.731 188.513 188.946C189.085 191.629 189.415 194.359 189.499 197.101Z" fill="black"/>
<path d="M170.741 585.628L185.483 587.196L188.249 555.404L173.506 553.836L170.741 585.628Z" fill="#E4897B"/>
<path d="M97.2065 584.554H111.473L112.653 551.476H98.369L97.2065 584.554Z" fill="#E4897B"/>
<path d="M113.464 582.898H96.1147C95.8309 582.903 95.557 583.002 95.3367 583.181C95.1164 583.36 94.9624 583.608 94.8993 583.884L92.0813 596.601C92.0219 596.872 92.0168 597.151 92.0663 597.424C92.1157 597.697 92.2188 597.957 92.3695 598.19C92.5202 598.422 92.7155 598.623 92.9442 598.779C93.1729 598.936 93.4303 599.046 93.7017 599.102C93.8532 599.128 94.008 599.128 94.1596 599.102C99.7782 599.102 103.864 598.679 110.91 598.679C115.26 598.679 128.364 599.12 134.353 599.12C140.341 599.12 141.134 593.202 138.668 592.656C127.66 590.26 119.293 586.931 115.771 583.849C115.144 583.261 114.323 582.923 113.464 582.898Z" fill="#263238"/>
<path d="M114.45 584.888C114.381 584.871 114.318 584.833 114.271 584.78C114.224 584.726 114.194 584.66 114.186 584.589C114.177 584.526 114.188 584.463 114.216 584.406C114.245 584.35 114.289 584.303 114.344 584.272C114.855 583.937 119.47 581.101 121.055 581.929C121.235 582.008 121.387 582.139 121.491 582.305C121.594 582.472 121.645 582.667 121.636 582.863C121.671 583.191 121.625 583.524 121.503 583.831C121.38 584.138 121.184 584.41 120.931 584.624C120.128 585.179 119.158 585.441 118.184 585.364C116.925 585.347 115.672 585.188 114.45 584.888ZM115.419 584.413C117.087 584.979 118.908 584.884 120.509 584.148C120.676 583.997 120.804 583.807 120.884 583.596C120.964 583.385 120.992 583.157 120.967 582.933C120.967 582.669 120.843 582.546 120.738 582.546C120.609 582.473 120.462 582.442 120.315 582.458C118.572 582.787 116.909 583.451 115.419 584.413Z" fill="#407BFF"/>
<path d="M114.291 584.994C114.24 584.959 114.199 584.911 114.172 584.856C114.144 584.8 114.131 584.739 114.133 584.677C114.133 584.483 114.503 580.379 116.158 579.041C116.349 578.867 116.576 578.738 116.823 578.662C117.069 578.586 117.329 578.565 117.585 578.6C117.841 578.599 118.089 578.686 118.288 578.846C118.487 579.007 118.624 579.231 118.677 579.481C118.959 580.996 116.105 584.131 114.644 584.941H114.485C114.427 584.977 114.36 584.995 114.291 584.994ZM116.581 579.428C115.557 580.708 114.943 582.267 114.82 583.902C116.299 582.792 118.113 580.379 117.937 579.481C117.937 579.393 117.937 579.146 117.444 579.146H117.286C117.049 579.164 116.823 579.25 116.634 579.393L116.581 579.428Z" fill="#407BFF"/>
<path d="M187.033 582.458H169.684C169.402 582.458 169.129 582.554 168.908 582.73C168.687 582.906 168.533 583.151 168.469 583.426L165.651 596.143C165.536 596.689 165.642 597.259 165.945 597.728C166.249 598.196 166.726 598.526 167.271 598.644H167.747C173.348 598.538 177.434 598.204 184.497 598.204C188.83 598.204 201.934 598.662 207.922 598.662C213.911 598.662 214.703 592.726 212.255 592.18C201.247 589.785 192.881 586.473 189.358 583.374C188.721 582.794 187.894 582.469 187.033 582.458Z" fill="#263238"/>
<path d="M188.02 584.43C187.951 584.413 187.888 584.375 187.841 584.322C187.794 584.268 187.764 584.202 187.756 584.131C187.746 584.066 187.758 584 187.79 583.943C187.822 583.885 187.872 583.84 187.932 583.814C188.442 583.479 193.057 580.643 194.625 581.471C194.802 581.553 194.951 581.686 195.054 581.851C195.158 582.017 195.21 582.209 195.206 582.405C195.243 582.734 195.198 583.067 195.075 583.374C194.952 583.681 194.755 583.953 194.501 584.166C193.715 584.737 192.76 585.029 191.789 584.994C190.515 584.95 189.251 584.761 188.02 584.43ZM188.988 583.955C190.656 584.511 192.472 584.423 194.079 583.708C194.247 583.557 194.376 583.368 194.456 583.156C194.536 582.945 194.563 582.717 194.537 582.493C194.537 582.211 194.413 582.088 194.325 582.088C194.191 582.015 194.037 581.984 193.885 582C192.144 582.337 190.483 583.001 188.988 583.955Z" fill="#407BFF"/>
<path d="M187.932 584.501C187.88 584.469 187.837 584.425 187.806 584.373C187.775 584.321 187.758 584.262 187.755 584.201C187.755 583.99 188.125 579.886 189.781 578.548C189.972 578.374 190.199 578.245 190.445 578.169C190.692 578.093 190.952 578.072 191.208 578.107C191.466 578.107 191.716 578.196 191.915 578.36C192.115 578.524 192.25 578.752 192.3 579.005C192.599 580.503 189.746 583.655 188.266 584.448H188.108C188.055 584.482 187.994 584.5 187.932 584.501ZM190.221 578.935C189.189 580.21 188.574 581.772 188.46 583.409C189.922 582.299 191.736 579.886 191.56 579.005C191.56 578.9 191.56 578.653 191.067 578.653H190.908C190.655 578.671 190.414 578.77 190.221 578.935Z" fill="#407BFF"/>
<path opacity="0.2" d="M173.506 553.836L188.249 555.404L186.804 571.802L172.062 570.234L173.506 553.836Z" fill="black"/>
<path opacity="0.2" d="M98.3691 551.494H112.653L112.037 568.561H97.7527L98.3691 551.494Z" fill="black"/>
<path d="M104.252 261.301H179.988C187.192 300.666 209.754 439.933 193.568 564.017L167.906 560.829C167.906 560.829 170.283 396.094 147.633 335.205C145.026 367.789 141.926 402.47 139.249 420.928C132.715 466.335 118.607 565.62 118.607 565.62H92.4863C92.4863 565.62 97.7703 470.615 100.289 425.965C102.984 377.494 104.164 271.252 104.252 261.301Z" fill="#407BFF"/>
<path opacity="0.2" d="M147.756 335.205C151.49 345.882 154.324 356.852 156.228 368.001C158.342 338.992 149.87 308.24 149.87 308.24L147.756 335.205Z" fill="black"/>
<path d="M196.58 569.988L164.823 565.267L165.792 556.478L198.816 560.811L196.58 569.988Z" fill="#407BFF"/>
<path opacity="0.6" d="M196.58 569.988L164.823 565.267L165.792 556.478L198.816 560.811L196.58 569.988Z" fill="white"/>
<path d="M121.742 565.813H90.9363V556.602L122.904 556.003L121.742 565.813Z" fill="#407BFF"/>
<path opacity="0.6" d="M121.742 565.813H90.9363V556.602L122.904 556.003L121.742 565.813Z" fill="white"/>
<path d="M104.111 274.475L104.04 263.502L181.291 258.729L181.837 269.368L104.111 274.475Z" fill="#263238"/>
<path d="M123.661 260.719H120.174V276.8H123.661V260.719Z" fill="#407BFF"/>
<path d="M177.047 255.379L173.569 255.632L174.738 271.67L178.216 271.417L177.047 255.379Z" fill="#407BFF"/>
<path d="M181.221 258.729L104.04 264.436C104.04 257.672 103.864 250.134 103.354 242.173C102.402 227.466 100.588 211.368 98.5628 196.273C94.2652 164.2 88.9989 136.671 88.9989 136.671C124.93 127.6 173.137 129.96 173.137 129.96C185.659 176.881 181.221 258.729 181.221 258.729Z" fill="#407BFF"/>
<path opacity="0.6" d="M181.221 258.729L104.04 264.436C104.04 257.672 103.864 250.134 103.354 242.173C102.402 227.466 100.588 211.368 98.5628 196.273C94.2652 164.2 88.9989 136.671 88.9989 136.671C124.93 127.6 173.137 129.96 173.137 129.96C185.659 176.881 181.221 258.729 181.221 258.729Z" fill="white"/>
<path d="M116.422 131.862C123.468 138.185 140.429 135.86 140.429 135.86C140.429 135.86 150.997 132.937 148.831 129.608C142.56 128.586 139.531 125.662 138.263 121.911C137.567 119.595 137.351 117.162 137.629 114.76C137.726 113.418 137.902 112.083 138.157 110.762L117.021 95.1566C119.857 105.46 123.239 124.394 116.422 131.862Z" fill="#E4897B"/>
<path opacity="0.2" d="M121.971 105.073C122.798 117.719 133.19 121.206 138.28 121.911C137.584 119.595 137.368 117.162 137.646 114.76L121.971 105.073Z" fill="black"/>
<path d="M158.324 65.1087C163.449 69.9699 161.318 84.7825 150.874 92.3561C140.429 99.9297 140.429 63.2945 140.429 63.2945C140.429 63.2945 155.066 62.0088 158.324 65.1087Z" fill="#263238"/>
<path d="M120.544 107.996C122.734 111.238 125.928 113.672 129.635 114.922C133.342 116.173 137.357 116.171 141.063 114.918C145.883 113.392 149.939 110.085 152.406 105.672C152.755 105.06 153.072 104.431 153.357 103.787C158.5 91.8277 160.085 70.692 147.422 62.8366C143.073 60.1116 137.822 59.2229 132.819 60.3654C127.817 61.5079 123.472 64.5883 120.738 68.9307C119.121 71.5082 118.126 74.4268 117.832 77.4554C116.282 91.4754 114.696 99.6831 120.544 107.996Z" fill="#E4897B"/>
<path d="M138.333 84.941C138.069 86.0506 138.58 87.0898 139.337 87.2131C140.094 87.3364 140.834 86.5085 141.098 85.4518C141.363 84.395 140.834 83.303 140.112 83.1797C139.39 83.0564 138.544 83.7961 138.333 84.941Z" fill="#263238"/>
<path d="M151.173 87.125C150.909 88.2346 151.437 89.2914 152.159 89.4147C152.882 89.538 153.674 88.7102 153.921 87.6534C154.167 86.5966 153.657 85.487 152.917 85.3637C152.177 85.2404 151.367 86.0506 151.173 87.125Z" fill="#263238"/>
<path d="M146.999 86.9841C147.762 90.6637 149.03 94.22 150.768 97.5519C149.892 97.9792 148.934 98.2085 147.96 98.2237C146.986 98.2389 146.02 98.0397 145.132 97.64L146.999 86.9841Z" fill="#DE5753"/>
<path d="M135.057 80.0974C135.177 80.1325 135.304 80.138 135.427 80.1135C135.549 80.089 135.664 80.0351 135.762 79.9565C136.363 79.3564 137.098 78.9066 137.906 78.6434C138.713 78.3802 139.572 78.3112 140.412 78.4418C140.497 78.4628 140.586 78.4667 140.673 78.4532C140.76 78.4398 140.844 78.4093 140.919 78.3635C140.994 78.3176 141.06 78.2574 141.112 78.1862C141.164 78.115 141.201 78.0343 141.222 77.9486C141.259 77.776 141.229 77.5956 141.137 77.4447C141.046 77.2938 140.899 77.1841 140.729 77.1384C139.676 76.9441 138.592 77.0024 137.566 77.3086C136.541 77.6148 135.602 78.1601 134.828 78.8997C134.705 79.0276 134.637 79.198 134.637 79.3752C134.637 79.5525 134.705 79.7229 134.828 79.8508C134.888 79.9472 134.965 80.031 135.057 80.0974Z" fill="#263238"/>
<path d="M142.278 103.276C140.612 103.249 138.977 102.818 137.514 102.021C136.051 101.223 134.803 100.083 133.877 98.6968C133.852 98.6566 133.835 98.6117 133.827 98.5648C133.82 98.5179 133.822 98.47 133.834 98.4239C133.845 98.3779 133.866 98.3346 133.894 98.2968C133.923 98.2589 133.959 98.2272 134 98.2036C134.078 98.1566 134.171 98.1414 134.259 98.161C134.348 98.1807 134.425 98.2338 134.476 98.3093C135.362 99.5706 136.531 100.608 137.888 101.339C139.246 102.069 140.755 102.473 142.296 102.519C142.387 102.519 142.474 102.553 142.539 102.616C142.605 102.678 142.644 102.763 142.648 102.853C142.644 102.941 142.607 103.024 142.546 103.085C142.484 103.147 142.401 103.184 142.314 103.188L142.278 103.276Z" fill="#263238"/>
<path d="M157.443 83.6376C157.561 83.7071 157.694 83.7436 157.831 83.7433C158 83.6902 158.142 83.5756 158.23 83.4222C158.318 83.2689 158.345 83.088 158.306 82.9155C158.033 81.8761 157.512 80.9183 156.789 80.1239C156.065 79.3295 155.159 78.7221 154.15 78.3537C153.982 78.304 153.801 78.3223 153.646 78.4047C153.491 78.487 153.375 78.6268 153.322 78.794C153.272 78.9645 153.289 79.1479 153.371 79.3056C153.454 79.4632 153.594 79.5829 153.762 79.6395C154.551 79.9549 155.255 80.4505 155.817 81.0866C156.38 81.7228 156.786 82.4818 157.003 83.303C157.048 83.3869 157.111 83.4602 157.187 83.5179C157.263 83.5756 157.35 83.6164 157.443 83.6376Z" fill="#263238"/>
<path d="M131.041 61.7798V68.05C129.934 68.4226 129.007 69.1985 128.446 70.2233C127.884 71.2481 127.73 72.4467 128.012 73.5806C129.368 79.0406 125.44 86.7551 121.055 89.4323C121.055 89.4323 121.196 87.1602 119.293 87.4597C117.391 87.7591 116.422 99.5775 119.452 105.619C119.452 105.619 114.45 99.8769 112.794 87.1602C111.244 75.3947 112.054 65.8484 114.925 61.727L131.041 61.7798Z" fill="#263238"/>
<path d="M109.8 87.8119C110.806 91.2296 113.124 94.1105 116.246 95.8259C120.403 98.0628 123.521 94.5754 123.292 90.1193C123.01 86.1387 120.544 80.0798 115.929 79.7275C111.315 79.3753 108.602 83.6024 109.8 87.8119Z" fill="#E4897B"/>
<path d="M112.09 72.4533C112.09 72.4533 107.739 62.0088 119.135 54.3471C130.531 46.6854 157.567 55.6152 159.469 61.8326C161.371 68.05 140.922 79.34 112.09 72.4533Z" fill="#263238"/>
<path d="M119.082 125.363L136.325 134.804L138.685 121.911L150.768 129.766V146.234L137.981 138.608L128.998 152.064L111.262 132.584L119.082 125.363Z" fill="#407BFF"/>
<path d="M158.246 259.177L144.67 259.929C143.543 259.992 142.681 260.956 142.743 262.082L143.251 271.262C143.314 272.389 144.278 273.252 145.404 273.189L158.981 272.437C160.108 272.375 160.97 271.411 160.908 270.284L160.399 261.104C160.337 259.978 159.373 259.115 158.246 259.177Z" fill="white"/>
<path opacity="0.5" d="M119.082 125.363L136.325 134.804L138.685 121.911L150.768 129.766V146.234L137.981 138.608L128.998 152.064L111.262 132.584L119.082 125.363Z" fill="white"/>
<path opacity="0.2" d="M131.041 238.826C125.916 246.541 109.518 246.488 103.354 242.226C102.403 227.519 100.588 211.421 98.5629 196.326L131.041 238.826Z" fill="black"/>
<path d="M104.04 179.435C104.04 179.435 107.686 203.178 111.262 207.81C114.837 212.442 188.759 252.864 188.759 252.864L214.316 251.015L226.064 264.489C226.064 264.489 192.018 269.773 188.301 268.751C186.034 268.123 183.833 267.274 181.732 266.215C181.732 266.215 104.234 235.691 97.7173 228.717C91.2005 221.742 83.7854 185.934 83.7854 185.934L104.04 179.435Z" fill="#E4897B"/>
<path d="M88.9989 136.723C102.526 133.905 109.518 190.038 109.518 190.038L81.848 197.083C81.848 197.083 72.3546 140.211 88.9989 136.723Z" fill="#407BFF"/>
<path opacity="0.5" d="M88.9989 136.723C102.526 133.905 109.518 190.038 109.518 190.038L81.848 197.083C81.848 197.083 72.3546 140.211 88.9989 136.723Z" fill="white"/>
<path d="M80.2275 195.745L111.262 188.312V193.649L81.619 202.244L80.2275 195.745Z" fill="#407BFF"/>
<path d="M186.505 546.245V304.805C186.507 294.356 183.304 284.157 177.328 275.585L168.892 263.502H318.779L327.216 275.585C333.191 284.157 336.394 294.356 336.392 304.805V543.955" stroke="#263238" stroke-width="6" stroke-linecap="round" stroke-linejoin="round"/>
<path d="M505.037 599.172C513.607 599.172 520.555 592.225 520.555 583.655C520.555 575.085 513.607 568.138 505.037 568.138C496.468 568.138 489.52 575.085 489.52 583.655C489.52 592.225 496.468 599.172 505.037 599.172Z" fill="#263238"/>
<path opacity="0.4" d="M512.805 583.655C512.808 582.118 512.356 580.615 511.504 579.335C510.653 578.056 509.441 577.057 508.022 576.467C506.603 575.876 505.041 575.72 503.533 576.017C502.025 576.315 500.639 577.054 499.551 578.139C498.463 579.225 497.722 580.609 497.421 582.116C497.12 583.623 497.272 585.186 497.86 586.606C498.447 588.026 499.443 589.241 500.72 590.095C501.998 590.949 503.501 591.405 505.038 591.405C506.057 591.407 507.066 591.209 508.009 590.82C508.951 590.432 509.807 589.861 510.529 589.141C511.25 588.422 511.823 587.566 512.213 586.625C512.604 585.684 512.805 584.674 512.805 583.655Z" fill="white"/>
<path d="M503.17 587.107C501.96 587.106 500.78 586.734 499.788 586.041C498.796 585.348 498.04 584.368 497.622 583.233L488.481 558.187H509.071V581.207C509.071 582.772 508.449 584.273 507.343 585.379C506.236 586.486 504.735 587.107 503.17 587.107Z" fill="#263238"/>
<path opacity="0.2" d="M503.17 587.107C501.96 587.106 500.78 586.734 499.788 586.041C498.796 585.348 498.04 584.368 497.622 583.233L488.481 558.187H509.071V581.207C509.071 582.772 508.449 584.273 507.343 585.379C506.236 586.486 504.735 587.107 503.17 587.107Z" fill="white"/>
<path d="M332.429 599.172C340.999 599.172 347.946 592.225 347.946 583.655C347.946 575.085 340.999 568.138 332.429 568.138C323.859 568.138 316.912 575.085 316.912 583.655C316.912 592.225 323.859 599.172 332.429 599.172Z" fill="#263238"/>
<path opacity="0.4" d="M340.197 583.655C340.2 582.118 339.747 580.615 338.896 579.335C338.045 578.056 336.833 577.057 335.414 576.467C333.995 575.876 332.433 575.72 330.925 576.017C329.417 576.315 328.031 577.054 326.943 578.139C325.855 579.225 325.114 580.609 324.812 582.116C324.511 583.623 324.664 585.186 325.251 586.606C325.839 588.026 326.834 589.241 328.112 590.095C329.39 590.949 330.892 591.405 332.429 591.405C333.448 591.407 334.458 591.209 335.4 590.82C336.343 590.432 337.199 589.861 337.921 589.141C338.642 588.422 339.214 587.566 339.605 586.625C339.996 585.684 340.197 584.674 340.197 583.655Z" fill="white"/>
<path d="M330.562 587.107C329.352 587.106 328.172 586.734 327.18 586.041C326.188 585.348 325.432 584.368 325.014 583.233L315.873 558.187H336.463V581.207C336.463 582.772 335.841 584.273 334.734 585.379C333.628 586.486 332.127 587.107 330.562 587.107Z" fill="#263238"/>
<path opacity="0.2" d="M330.562 587.107C329.352 587.106 328.172 586.734 327.18 586.041C326.188 585.348 325.432 584.368 325.014 583.233L315.873 558.187H336.463V581.207C336.463 582.772 335.841 584.273 334.734 585.379C333.628 586.486 332.127 587.107 330.562 587.107Z" fill="white"/>
<path d="M531.721 540.133V554.787C531.721 556.1 531.2 557.359 530.272 558.287C529.344 559.215 528.085 559.737 526.772 559.737H179.918C178.605 559.737 177.346 559.215 176.418 558.287C175.49 557.359 174.968 556.1 174.968 554.787V540.133H531.721Z" fill="#263238"/>
<path opacity="0.4" d="M531.721 540.133V554.787C531.721 556.1 531.2 557.359 530.272 558.287C529.344 559.215 528.085 559.737 526.772 559.737H179.918C178.605 559.737 177.346 559.215 176.418 558.287C175.49 557.359 174.968 556.1 174.968 554.787V540.133H531.721Z" fill="white"/>
<path opacity="0.2" d="M408.43 540.133V554.787C408.43 556.1 407.908 557.359 406.98 558.287C406.052 559.215 404.793 559.737 403.48 559.737H179.918C178.605 559.737 177.346 559.215 176.418 558.287C175.49 557.359 174.968 556.1 174.968 554.787V540.133H408.43Z" fill="white"/>
<path d="M379.985 599.172C388.555 599.172 395.502 592.225 395.502 583.655C395.502 575.085 388.555 568.138 379.985 568.138C371.415 568.138 364.468 575.085 364.468 583.655C364.468 592.225 371.415 599.172 379.985 599.172Z" fill="#263238"/>
<path opacity="0.6" d="M387.752 583.655C387.755 582.118 387.303 580.615 386.451 579.335C385.6 578.056 384.388 577.057 382.969 576.467C381.55 575.876 379.988 575.72 378.48 576.017C376.972 576.315 375.586 577.054 374.498 578.139C373.41 579.225 372.669 580.609 372.368 582.116C372.067 583.623 372.219 585.186 372.807 586.606C373.394 588.026 374.39 589.241 375.667 590.095C376.945 590.949 378.448 591.405 379.985 591.405C381.004 591.407 382.013 591.209 382.956 590.82C383.898 590.432 384.754 589.861 385.476 589.141C386.197 588.422 386.77 587.566 387.16 586.625C387.551 585.684 387.752 584.674 387.752 583.655Z" fill="white"/>
<path d="M378.118 587.107C376.908 587.106 375.727 586.734 374.735 586.041C373.743 585.348 372.987 584.368 372.569 583.233L363.428 558.187H384.018V581.207C384.018 582.772 383.396 584.273 382.29 585.379C381.183 586.486 379.682 587.107 378.118 587.107Z" fill="#263238"/>
<path opacity="0.4" d="M378.118 587.107C376.908 587.106 375.727 586.734 374.735 586.041C373.743 585.348 372.987 584.368 372.569 583.233L363.428 558.187H384.018V581.207C384.018 582.772 383.396 584.273 382.29 585.379C381.183 586.486 379.682 587.107 378.118 587.107Z" fill="white"/>
<path d="M207.376 599.172C215.946 599.172 222.894 592.225 222.894 583.655C222.894 575.085 215.946 568.138 207.376 568.138C198.807 568.138 191.859 575.085 191.859 583.655C191.859 592.225 198.807 599.172 207.376 599.172Z" fill="#263238"/>
<path opacity="0.6" d="M215.144 583.655C215.147 582.118 214.695 580.615 213.843 579.335C212.992 578.056 211.78 577.057 210.361 576.467C208.942 575.876 207.38 575.72 205.872 576.017C204.364 576.315 202.978 577.054 201.89 578.139C200.802 579.225 200.061 580.609 199.76 582.116C199.459 583.623 199.611 585.186 200.199 586.606C200.786 588.026 201.782 589.241 203.059 590.095C204.337 590.949 205.84 591.405 207.376 591.405C208.396 591.407 209.405 591.209 210.348 590.82C211.29 590.432 212.146 589.861 212.868 589.141C213.589 588.422 214.162 587.566 214.552 586.625C214.943 585.684 215.144 584.674 215.144 583.655Z" fill="white"/>
<path d="M205.509 587.107C204.299 587.106 203.119 586.734 202.127 586.041C201.135 585.348 200.379 584.368 199.961 583.233L190.82 558.187H211.41V581.207C211.41 582.772 210.788 584.273 209.682 585.379C208.575 586.486 207.074 587.107 205.509 587.107Z" fill="#263238"/>
<path opacity="0.4" d="M205.509 587.107C204.299 587.106 203.119 586.734 202.127 586.041C201.135 585.348 200.379 584.368 199.961 583.233L190.82 558.187H211.41V581.207C211.41 582.772 210.788 584.273 209.682 585.379C208.575 586.486 207.074 587.107 205.509 587.107Z" fill="white"/>
<path d="M382.169 426.441H217.927V540.133H382.169V426.441Z" fill="#407BFF"/>
<path opacity="0.4" d="M382.169 426.441H217.927V540.133H382.169V426.441Z" fill="white"/>
<path opacity="0.2" d="M294.138 426.441H217.927V540.133H294.138V426.441Z" fill="white"/>
<path opacity="0.2" d="M286.935 516.092H277.406C276.511 516.092 275.786 516.817 275.786 517.712V530.728C275.786 531.623 276.511 532.348 277.406 532.348H286.935C287.83 532.348 288.555 531.623 288.555 530.728V517.712C288.555 516.817 287.83 516.092 286.935 516.092Z" fill="black"/>
<path opacity="0.2" d="M269.744 516.092H260.216C259.321 516.092 258.595 516.817 258.595 517.712V530.728C258.595 531.623 259.321 532.348 260.216 532.348H269.744C270.639 532.348 271.365 531.623 271.365 530.728V517.712C271.365 516.817 270.639 516.092 269.744 516.092Z" fill="black"/>
<path opacity="0.4" d="M346.854 426.441H337.572V438.295H346.854V426.441Z" fill="black"/>
<path opacity="0.2" d="M372.235 474.983H308.299V489.848H372.235V474.983Z" fill="black"/>
<path opacity="0.2" d="M244.751 432.359H222.894V454.217H244.751V432.359Z" fill="black"/>
<path d="M398.936 312.749H234.694V426.441H398.936V312.749Z" fill="#407BFF"/>
<path opacity="0.4" d="M398.936 312.749H234.694V426.441H398.936V312.749Z" fill="black"/>
<path opacity="0.2" d="M310.906 312.749H234.694V426.441H310.906V312.749Z" fill="white"/>
<path opacity="0.2" d="M303.72 402.399H294.191C293.296 402.399 292.571 403.125 292.571 404.02V417.036C292.571 417.931 293.296 418.656 294.191 418.656H303.72C304.615 418.656 305.34 417.931 305.34 417.036V404.02C305.34 403.125 304.615 402.399 303.72 402.399Z" fill="black"/>
<path opacity="0.2" d="M286.53 402.399H277.001C276.106 402.399 275.38 403.125 275.38 404.02V417.036C275.38 417.931 276.106 418.656 277.001 418.656H286.53C287.424 418.656 288.15 417.931 288.15 417.036V404.02C288.15 403.125 287.424 402.399 286.53 402.399Z" fill="black"/>
<path opacity="0.4" d="M363.622 312.749H354.34V324.602H363.622V312.749Z" fill="black"/>
<path opacity="0.2" d="M389.003 361.29H325.067V376.156H389.003V361.29Z" fill="black"/>
<path opacity="0.2" d="M261.537 318.667H239.679V340.524H261.537V318.667Z" fill="black"/>
<path d="M499.472 312.749H335.23V426.441H499.472V312.749Z" fill="#407BFF"/>
<path opacity="0.4" d="M499.472 312.749H335.23V426.441H499.472V312.749Z" fill="white"/>
<path opacity="0.2" d="M411.442 312.749H335.23V426.441H411.442V312.749Z" fill="white"/>
<path opacity="0.2" d="M404.255 402.399H394.727C393.832 402.399 393.106 403.125 393.106 404.02V417.036C393.106 417.931 393.832 418.656 394.727 418.656H404.255C405.15 418.656 405.876 417.931 405.876 417.036V404.02C405.876 403.125 405.15 402.399 404.255 402.399Z" fill="black"/>
<path opacity="0.2" d="M387.065 402.399H377.536C376.641 402.399 375.916 403.125 375.916 404.02V417.036C375.916 417.931 376.641 418.656 377.536 418.656H387.065C387.96 418.656 388.685 417.931 388.685 417.036V404.02C388.685 403.125 387.96 402.399 387.065 402.399Z" fill="black"/>
<path opacity="0.4" d="M464.158 312.749H454.875V324.602H464.158V312.749Z" fill="black"/>
<path opacity="0.2" d="M489.538 361.29H425.603V376.156H489.538V361.29Z" fill="black"/>
<path opacity="0.2" d="M362.072 318.667H340.214V340.524H362.072V318.667Z" fill="black"/>
<path d="M442.67 199.056H278.428V312.749H442.67V199.056Z" fill="#407BFF"/>
<path opacity="0.2" d="M354.639 199.056H278.428V312.749H354.639V199.056Z" fill="white"/>
<path opacity="0.2" d="M347.436 288.707H337.907C337.012 288.707 336.286 289.432 336.286 290.327V303.343C336.286 304.238 337.012 304.964 337.907 304.964H347.436C348.331 304.964 349.056 304.238 349.056 303.343V290.327C349.056 289.432 348.331 288.707 347.436 288.707Z" fill="black"/>
<path opacity="0.2" d="M330.263 288.707H320.734C319.839 288.707 319.114 289.432 319.114 290.327V303.343C319.114 304.238 319.839 304.964 320.734 304.964H330.263C331.158 304.964 331.883 304.238 331.883 303.343V290.327C331.883 289.432 331.158 288.707 330.263 288.707Z" fill="black"/>
<path opacity="0.4" d="M407.355 199.056H398.073V210.91H407.355V199.056Z" fill="black"/>
<path opacity="0.2" d="M432.736 247.598H368.8V262.463H432.736V247.598Z" fill="black"/>
<path opacity="0.2" d="M305.252 204.974H283.395V226.832H305.252V204.974Z" fill="black"/>
<path d="M486.685 426.441H322.443V540.133H486.685V426.441Z" fill="#263238"/>
<path opacity="0.2" d="M486.685 426.441H322.443V540.133H486.685V426.441Z" fill="white"/>
<path opacity="0.2" d="M398.654 426.441H322.443V540.133H398.654V426.441Z" fill="white"/>
<path opacity="0.2" d="M391.451 516.092H381.922C381.027 516.092 380.302 516.817 380.302 517.712V530.728C380.302 531.623 381.027 532.348 381.922 532.348H391.451C392.346 532.348 393.071 531.623 393.071 530.728V517.712C393.071 516.817 392.346 516.092 391.451 516.092Z" fill="black"/>
<path opacity="0.2" d="M374.26 516.092H364.732C363.837 516.092 363.111 516.817 363.111 517.712V530.728C363.111 531.623 363.837 532.348 364.732 532.348H374.26C375.155 532.348 375.881 531.623 375.881 530.728V517.712C375.881 516.817 375.155 516.092 374.26 516.092Z" fill="black"/>
<path opacity="0.4" d="M451.37 426.441H442.088V438.295H451.37V426.441Z" fill="black"/>
<path opacity="0.2" d="M476.751 474.983H412.815V489.848H476.751V474.983Z" fill="black"/>
<path opacity="0.2" d="M349.267 432.359H327.41V454.217H349.267V432.359Z" fill="black"/>
</svg>
